<?xml version="1.0" encoding="utf-8"?>
<!-- Generator: Adobe Illustrator 19.2.1, SVG Export Plug-In . SVG Version: 6.00 Build 0)  -->
<svg version="1.1" id="Layer_1" xmlns="http://www.w3.org/2000/svg" xmlns:xlink="http://www.w3.org/1999/xlink" x="0px" y="0px"
	 viewBox="0 0 308.5 300" style="enable-background:new 0 0 308.5 300;" xml:space="preserve">
<style type="text/css">
	.st0{fill:#6FA543;}
	.st1{fill:none;}
	.st2{fill:#F1F2F2;}
	.st3{font-family:'ProximaNova-SemiboldIt';}
	.st4{font-size:36px;}
	.st5{fill:#F29D33;}
	.st6{fill:#A13223;}
</style>
<circle class="st0" cx="154.2" cy="153.2" r="131.6"/>
<path class="st0" d="M233.8,262.3c2.4-1,3.7-1.6,5.9-2.5l1.4-0.9l1.4-1l3.1-2.2c1.1-0.8,2.1-1.7,3.2-2.5s2.2-1.7,3.2-2.6
	c2-1.8,4-3.4,5.6-4.8c1.2-1.1,2.5-2.1,3.8-3c0.1,0.2-1.6,3-3.6,5.9c-1,1.4-2.2,2.8-3.1,4c-0.7,0.9-1.4,1.7-2.3,2.4l-3.1,2.7
	c-1,0.8-2.1,1.6-3.1,2.4s-2,1.5-2.9,2.1l-2.9,1.9c-1,0.6-1.9,1.2-2.8,1.8l-2.8,1.6l-2.8,1.5l-2.8,1.4l-2.8,1.4c-1,0.5-2,0.8-2.9,1.3
	c-2,0.9-4,1.8-6.2,2.6l-3.4,1.3c-1.1,0.4-2.4,0.8-3.6,1.3s-2.5,1-3.8,1.4l-4.1,1.4c-2,0.6-8.7,4.1-15.6,6.4c0,0,2.1-0.2,4.6-0.7
	c-2.7,1-5.4,1.8-8.1,2.4c-1.5,0.4-3.1,0.6-4.7,0.9s-3.2,0.6-4.9,0.8c-6.7,1-13.7,1.2-19.8,1.5c2.6,0.3,2.6,0.3,4.2,0.6
	c-5-0.6-12.7-1.2-21-2.2c-8.3-1.1-16.5-2.8-24.5-5.2c-2.8-1.2-4.8-2-6.7-3l-4.9-1.8c-1.6-0.7-3.2-1.4-4.8-2.1s-3.1-1.5-4.7-2.3
	s-3.2-1.6-4.7-2.5s-3.2-1.8-4.7-2.7l-4.8-3l-4.9-3.2c-1.7-1.1-3.3-2.3-5-3.5c-6.5-5-12.5-10.8-17.8-17.1c-6-7.2-11.4-14.9-16.1-23
	c-3.9-7.2-7.2-14.7-9.7-22.5c-2.5-7.9-4.4-16-5.5-24.2c-1.1-8-1.6-16.1-1.5-24.1c0-7.6,0.4-15.3,1.3-22.9c0.1-0.6,0.1-1.3,0.2-2
	c0.1-0.7,0.3-1.5,0.4-2.3c0.4-1.6,0.7-3.5,1.3-5.4s1.2-3.9,2-5.8c0.8-2,1.6-3.9,2.5-5.8c0.5-2.2,1.1-4.7,2-7.3
	c0.9-2.8,2-5.5,3.2-8.2c2.7-6.1,6-11.9,9.9-17.4c1-1.4,2-2.9,3.1-4.3l3.3-4.2c2.3-2.7,4.7-5.4,7.2-7.9c4.7-4.8,9.8-9.3,15.2-13.4
	c0.9-0.7,1.8-1.4,2.7-2s1.8-1.1,2.6-1.6s1.6-1,2.4-1.4s1.5-0.8,2.3-1.1c1.4-0.7,2.8-1.2,3.9-1.7s2.2-0.8,3.1-1
	c5.1-3.3,10.5-6.3,16.1-8.8l4.3-1.9c1.4-0.6,2.9-1.1,4.4-1.7c2.9-1.2,6-2,9-3c12.3-3.6,25.1-5.3,38-5.1c16.5,0.2,32.9,3.3,48.2,9.4
	c16.2,6.4,31,16,43.4,28.1c0.9,0.9,2,1.9,3.2,3s2.5,2.4,3.8,3.7c0.6,0.6,1.3,1.2,1.9,1.9l1.8,1.9c1.1,1.2,2.2,2.3,3.1,3.2
	c1.2,1.9,2.3,3.7,3.4,5.6c6.1,8.1,11.4,16.7,15.8,25.8c4.2,8.5,7.2,17.5,9,26.8l0.4,2.2l0.3,2.1c0.2,1.4,0.3,2.7,0.5,3.9
	c0.2,2.5,0.2,4.6,0.3,6.6c0,0.9,0,1.8-0.1,2.7c-0.1,0.8-0.1,1.6-0.2,2.3c-0.1,1.2-0.3,2.5-0.6,3.7c-0.6,2.6-2,5-3.9,6.9
	c-0.5-6.4-1.6-12.7-3.2-18.9c-1.7-6.5-3.8-12.8-6.3-19c-2.8-6.8-5.9-13.5-9.5-20c-4.1-7.5-8.6-14.8-13.5-21.8
	c-1.6-2.4-3.4-4.6-5.3-6.7c-2.2-2.4-4.6-4.7-7-6.9c-5.1-4.5-10.6-8.6-16.3-12.3c-4.7-2.8-9.5-6-14.4-8.5c-2.4-1.3-4.9-2.4-7.4-3.4
	c-1.2-0.5-2.5-0.8-3.7-1.2c-1.2-0.4-2.4-0.6-3.6-0.8c-6-3.4-17.1-7.5-30.2-9.4c-6.7-0.9-13.5-1.2-20.2-0.9c-6.5,0.3-13,1.3-19.3,2.8
	c-2,0.2,0.2-0.5-3.3,0C106.6,31.6,90.4,39.8,76,50.8C61.3,62.2,48.4,77.1,39.8,94.6c-4.7,9.4-8.2,19.4-10.7,29.6
	c-1.3,5.6-2.2,11.2-2.7,16.9c-0.2,2.9-0.4,5.9-0.4,8.8c0,1.5,0,3,0.1,4.4l0.3,4.5c0,0.3,0.1,0.7,0.1,1.2l0.1,1.8l0.2,4.9l0.5,5.7
	c0.2,1.9,0.6,3.7,0.9,5.3l0.5,1.6l0.5,1.6l1.1,3.2c2.1,8.4,5,16.6,8.8,24.4c3.3,6.7,7,13.3,11,19.6c3.8,5.8,8.1,11.2,12.9,16.1
	c4.6,4.5,9.3,8.8,14.4,12.9c8.9,7,18.8,12.6,29.4,16.7c11.2,4.6,22.7,7.1,30.6,9c1.8,0.4,3.7,0.6,5.6,0.7l3.8,0.3
	c1.3,0.1,2.5,0.1,3.6,0.1c2,0.3,4,0.6,6.1,0.8c4.4,0,7.1-1.4,11.4-1.7c7.2-0.7,14.4-1.9,21.5-3.8c7-1.9,13.9-4.3,20.5-7.2
	c6.4-2.8,12.2-5.8,17.1-8.6c1.3-0.6,2.4-1.4,3.5-2l3.2-1.8c2-1.2,3.8-2.2,5.4-3c-0.9,0.8-3,2.7-4.5,4.2
	C232.9,262.1,231.9,263.1,233.8,262.3z"/>
<path class="st0" d="M295.3,155.7c0.2,0.6,0.4-0.2,0.6-1.6s0.2-3.2,0.2-4.7c-0.5,2.5-1,4-1.9,9.3l0.4-4.1c0.1-1,0.1-2.1,0.2-2.8
	l0.1-1.3c-0.5-2.2-0.6-0.2-0.7,1.8s-0.1,3.9-0.2,1.4c0.2-4.5,0.5-8.1,1-5.9c-0.3,0.8-0.2,2.7-0.4,5.4c0.7,0.5,1.1-4,1.7-6.5
	l-0.2,6.5c-0.1,1.6-0.2,3.3-0.3,4.5l-0.2,2L295.3,155.7z"/>
<path class="st0" d="M289.3,155.4l0.4-1.3c0.2-0.6,0.4-1.3,0.4-1.3c-0.1-0.6-0.3-0.3-0.7,0.4s-0.9,2-1.4,3.1c1-2.7,1.5-4.1,1.8-4.7
	s0.5-0.4,0.6-0.1c0.2,0.6,0.3,1.9,1.5-1.5c-0.1-0.2-0.7,1.5-1.3,3S289.3,156,289.3,155.4z"/>
<path class="st0" d="M290.5,157.7c0.7-2.2,1.2-4.5,1.5-6.8c0.3-2,0.4-3.6,1.1-4.1l-0.3,2c-0.2,1.2-0.6,2.8-0.9,4.4s-0.6,3.2-1,4.4
	l-0.5,2L290.5,157.7z"/>
<path class="st0" d="M252,150.7c-0.7,0.8-1.4,1.6-2.2,2.4l-1.2,1.1c-0.6,0.5-1.4,1.2-2.6,2.2c0,0,1.8-1.5,3.4-3.1l2.3-2.2l0.8-0.7
	l0.3-0.3l-0.3,0.3L252,150.7z"/>
<path class="st0" d="M83.4,233.3c2,1.6,3.9,3,6.1,4.5c2.7,1.8,5.6,3.4,8.6,4.8c-0.9-0.4-1.9-0.9-2.8-1.3s-1.7-1-2.6-1.4
	c-1.6-1-3.2-1.9-4.4-2.8C85.9,235.3,84.1,233.9,83.4,233.3z"/>
<path class="st0" d="M33.9,172.5c0.4,0-0.5-2.4,1.1,0.9c0.5,1.6-1.3-0.1,1.7,4.7l-1.4-2.8c-0.4-0.7-0.7-1.4-0.9-1.9L33.9,172.5z"/>
<path class="st0" d="M33,165.8l-0.7-3.5C32.4,163.5,32.6,164.7,33,165.8z"/>
<path class="st0" d="M213.6,244.2H213l-1.1,0.7L213.6,244.2z"/>
<path class="st0" d="M201.7,248.4l1.3-0.3l2.9-0.9l2.9-0.9c0.8-0.2,1.3-0.4,1.3-0.4c0.6-0.4,1.1-0.7,1.7-1c-1.5,0.7-3.1,1.2-4.8,1.5
	c-0.7,0.2-1.3,0.4-1.9,0.6C204.4,247.3,203.3,247.8,201.7,248.4z"/>
<path class="st0" d="M212,244.3l1-0.1c6.6-3.8,10.3-4,19.3-10.2l-5.3,2.9c-1.8,0.9-3.6,1.8-5.3,2.7l-5.1,2.5
	C215.1,243,213.5,243.6,212,244.3z"/>
<path class="st0" d="M219.6,239.8l1.2-0.9c0.6-0.5,1.2-0.9,1.2-0.9c2.4-1.2,2.4-0.8,2.4-0.6l2.4-1.5c1.2-0.8,2.4-1.6,2.4-1.6
	c0.8-0.9-2.5,1-6.6,3.1s-9,4.5-11.1,5.3l1.3-0.4c0.8-0.3,1.8-0.6,2.8-1L219.6,239.8z"/>
<path class="st0" d="M256.5,153.2l-0.1,0.2L256.5,153.2L256.5,153.2L256.5,153.2z"/>
<path class="st0" d="M244.4,157.5l0.3,1.4c1.2-1.2,2.3-2.2,3.2-3s1.7-1.5,2.5-2.3s1.6-1.5,2.6-2.4s1.9-2.1,3.2-3.6l0.1-0.2
	C253.7,148.8,249.3,154.6,244.4,157.5z"/>
<path class="st0" d="M191.5,250.2c1.8-0.5,3.4-0.9,4.9-1.4s2.9-1,4.1-1.4c1.8-0.6,3.5-1.4,5.1-2.5l-2,0.7c-1.2,0.5-2.8,0.9-4.4,1.4
	s-3.2,1-4.4,1.3l-2,0.5C197.8,248,192.5,249.4,191.5,250.2z"/>
<path class="st0" d="M180,250.3l1-0.2c0.6-0.1,1.4-0.2,2.1-0.4l3.1-0.7l-2.8,0.2c-0.3,0.2-0.6,0.4-1,0.5
	C181.8,249.9,181,250.1,180,250.3z"/>
<path class="st0" d="M183.3,249.2c0.2-0.3-0.7-0.2-3,0.1h1.5C182.6,249.3,183.3,249.2,183.3,249.2z"/>
<path class="st0" d="M195.3,245c-1.4,0.1-2.8,0.4-4.1,0.9c-0.6,0.2-1.3,0.5-2.3,0.8c-1.3,0.4-2.7,0.7-4,1c-0.2,0.5,1.6,0.1,3.8-0.5
	S193.6,245.6,195.3,245z"/>
<polygon class="st0" points="166.6,250.2 164.3,249.7 163.8,250.7 "/>
<path class="st0" d="M155.1,154.5c3.4,0.6,2.5,0.1,0.7-0.6c-1.6-0.6-3.2-1.3-4.7-2.1L155.1,154.5z"/>
<path class="st0" d="M158.9,248.6l2.2,0.8l0.6-0.2l0.6-0.3c2-0.2,4-0.3,6-0.1c0.7-0.5-0.8-0.6-2.9-0.4l-3.4,0.3
	C160.9,248.6,159.8,248.6,158.9,248.6z"/>
<path class="st0" d="M157.5,154.2l-3.3-0.9c-0.8-0.2-1.6-0.5-2.2-0.7l-1-0.3"/>
<path class="st0" d="M174.2,244.3c0.1-0.2-2.3-0.3-3.3-0.4s-0.7-0.4,4.7-1c-1,0.2-2.2,0.3-3.3,0.4s-2.1,0.2-2.9,0.3
	c-1.5,0.1-2.1,0-0.2-0.6c-1.7,0.2-2.5,0.3-3,0.4s-0.4,0.2-0.3,0.4s0.6,0.6-1.6,1C168,244,170.9,244.5,174.2,244.3z"/>
<path class="st0" d="M158.9,153.3l-2.6-0.1l-2.6-0.2c-1.4-0.1-2.7-0.1-4.1,0C153,153.1,156,154,158.9,153.3z"/>
<path class="st0" d="M151.9,153c0,0,0.3,0.1,0.7,0.1l1.6,0.2l2.3,0.3l-2.9-0.9l-0.9,0.1C152.4,153,151.9,153,151.9,153z"/>
<line class="st1" x1="89" y1="231.2" x2="88.5" y2="232.3"/>
<path class="st0" d="M149.6,153c0,0,0.2,0,0.5,0.1l1.3,0.2l4,0.5c1.5,0.2,2.9,0.2,4,0.3l1.8,0.1l-5.2-0.7l-5.2-0.9
	c-3.2-0.2-4.1-0.2-3.6,0.1c1.5,0.6,3.1,1,4.6,1.2C151.1,153.7,150.3,153.4,149.6,153z"/>
<path class="st0" d="M155.5,153.9h0.6l1.2-0.1l1.8-0.1c-1-0.2-2.1-0.3-3.1-0.3c-1.9-0.2-4.4-0.4-6.6-0.7
	C152.4,153.1,155.2,153.5,155.5,153.9z"/>
<path class="st0" d="M156.2,153.6l-3.8-0.8C153.4,153.1,154.7,153.4,156.2,153.6z"/>
<path class="st0" d="M64.4,213.7l1.3,1.2l2.9,2.6c1.1,1,2.1,1.9,3,2.6l1.4,1.1c-0.8-0.7-1.6-1.4-2.3-2l-2.1-1.9
	C67.1,216,65.7,214.9,64.4,213.7z"/>
<path class="st0" d="M155.3,153.1l-1.6-0.4l-0.7,0.8C156.4,154.1,155.2,153.3,155.3,153.1z"/>
<path class="st0" d="M114.3,233.1c-2.6-1.4-8.4-3.2-10.7-4.2c1.6,1.1,3.4,2.1,5.2,2.9l3,1.3c1,0.4,2.1,0.8,3.3,1.3
	C110.6,232.6,114,233.3,114.3,233.1z"/>
<path class="st0" d="M101.8,226.6l1.4,0.6l3,1.4c1.1,0.5,2.2,1,3.1,1.3l1.4,0.6c-1-0.9-2.2-1.6-3.6-1.9
	C105.6,228,103.7,227.5,101.8,226.6z"/>
<path class="st0" d="M88.1,219.2c-0.8-0.4-0.4,0.2-1.9-0.6c0.8,0.8,1.7,1.4,2.6,2c1.1,0.7,2.3,1.5,3.3,2.1c0,0-1-0.8-2-1.7
	L88.1,219.2z"/>
<path class="st0" d="M168.7,247.6c-1.6,0.2-3.1,0.3-4.5,0.4s-2.8,0.3-4.2,0.3c4.3,0.1,8.6-0.1,12.9-0.5
	C171.5,247.7,170.2,247.6,168.7,247.6z"/>
<path class="st0" d="M283.4,93.7c-4.6-8-9.6-15.7-15.2-23c-5.6-7.4-11.9-14.2-18.7-20.3c-4.6-4.3-9.6-8.2-14.8-11.7
	c-5.6-3.8-11.6-7.1-17.8-9.9c-0.8-0.4-1.6-0.8-2.4-1.1l-2.4-1c-1.6-0.6-3.2-1.4-4.9-1.9l-5-1.8l-5-1.5c-6.7-1.9-13.6-3.4-20.5-4.4
	l0.3-0.3c-11.8-2.1-23.9-2.5-35.8-1.1c-12.4,1.5-24.6,4.5-36.3,9.2h1.4c1.8-0.7,4.1-1.4,5.4-1.8s1.9-0.4,0.6,0.4l-4,1.2l-4,1.4
	c-2.5,0.8-4.6,1.6-5.3,1.8l-1.7,1.1l-1.2,0.8c-0.3,0.2-0.5,0.4-0.5,0.4c-1.6,0.6-1.9,0.2-2.9,0.2s-2.6,0.5-6.6,3.1
	c-0.6,0.6-1.3,1.2-2,1.6c-0.8,0.6-1.7,1.2-2.6,1.8s-2,1.2-3,1.8s-2,1.3-3,1.9l-2.7,1.8c-0.8,0.6-1.6,1.2-2.2,1.7
	c-1.2,1-1.9,1.8-1.7,2.3c-1.1,0.5-2.2,1.1-3.1,1.9c-1.2,1-2.4,2-3.5,3.1c-2.3,2.3-4.6,4.8-6.2,6.5l1.4-0.8l1-0.5
	c0.3-0.2,0.5-0.2,0.5-0.2c-1.8,1.6-3.5,3.2-5.2,4.8L49,65.5c-1.4,1.5-2.7,2.9-3.8,4.1c-1,1.1-1.8,2.2-2.6,3.4
	c-1.8,2.4-3.4,5.3-5.3,8.2l-2.6,4.6c-0.4,0.8-0.9,1.6-1.2,2.4l-1.2,2.4c-3.1,6.3-5.7,12.9-7.6,19.7c-1,1.2,0.1-2,1-4.6
	s1.7-4.5-0.4-0.8c-1.6,6.1-3.4,12.7-4.9,19.8c-1.5,7.4-2.5,14.9-3,22.4c-1,15.5,0.8,32,5.8,46.2c-0.1-0.8-0.8-3.4-0.1-1.6
	c0.9,5.9,4.2,13.1,8.1,22c-0.7-2.6-1.7-5.2-2.8-7.7l-2-5.5c-0.6-1.7-1.1-3.3-1.4-4.4c1.3,1.1,1.4,1.7,1.7,3.5c0.3,1.2,0.6,2.5,1,3.6
	c0.3,0.8,0.6,1.8,1,2.8s1,2.3,1.7,3.6c-0.3-0.8-0.8-2.5-0.6-2.4c2.6,5.4,3,6.5,3.1,7.4c0.1,0.5,0.2,1.1,0.4,1.6
	c0.1,0.4,0.4,0.9,0.7,1.5c0.3,0.6,0.8,1.4,1.4,2.4l-1-2.4l-0.9-2.4c0.6,1.3,1.3,2.6,2.1,3.9c0.3,0.5,0.6,1,1,1.4
	c0.6,0.7,1.1,1.5,4.1,5.7c-0.8-0.4-0.7,0.6-0.2,2c0.6,1.5,1.3,2.9,2.2,4.2c1,0.8,6.8,8.7,6.8,7.1c2.4,4.1,5.5,7.7,9,10.8
	c1.5,1.3,2.9,2.6,4.4,4c0.8,0.7,1.6,1.5,2.5,2.4c0.8,0.9,1.7,1.9,2.8,3c2.2,1.3,1.4,0.3,0.2-1s-2.9-3-2.5-3.2c2.4,1.9,3.8,3,4.5,3.6
	c0.7,0.6,0.8,1,0.7,1.1s-1.3,0,0.3,1.5l4,2.6l2.9,1.9l3.3,2c2.2,1.5,4.6,2.8,6.7,4.1s4.1,2.4,5.6,3.4l0.7-0.4c1.1,0.7,2.4,1.3,3.7,2
	s2.7,1.4,4.1,2.1l4.4,2c1.5,0.6,3,1.2,4.4,1.7c5.7,2.2,10.9,3.8,12.7,4.7c4.5-0.1-3.7-1.7-10.7-4c-0.6-0.5,0.9-0.2,3,0.2
	s4.7,1.2,6.4,1.7c-0.7-0.2-1.3-0.4-2-0.7c-0.7-0.3-1.5-0.5-2.3-0.6c-0.2-0.4,1-0.1,2.4,0.3s3.2,0.8,4.1,0.9c3,0.8,4.3,1,4.5,1.1
	c-0.6,0.1-1.1,0-1.7-0.1c-2.1-0.3-5.1-0.9-2.6-0.1l2,0.4l2.4,0.4c1.7,0.3,3.4,0.6,4.9,0.7c2.9,0.3,4.7,0.3,2.3-0.5
	c5,0.7,5.9,0.9,6.3,1.2s0.1,0.7,2.7,1.1c-1.9-0.3-3.6-0.5-5-0.6s-2.7-0.2-3.9-0.3c-1.2,0-2.4-0.1-3.6-0.3c-1.3-0.2-2.6-0.6-3.9-1
	c-2.1,0-1.4,0.4,1.1,1.1c1,0.2,2.2,0.4,3.4,0.6l3.9,0.5c2.7,0.4,5.5,0.6,8,0.9c2.1,0.2,4.3,0.3,6.4,0.2c1.6,0,2.6-0.1,2.5-0.4
	c0,0,0.3,0.1,0.7,0.1l1.4,0.2l2.1,0.3l2.1-0.4c0.5-0.1,1-0.2,1.4-0.3l0.6-0.2l1.7,0.1c-2-0.3-5-0.6-7.9-0.9
	c-1.4-0.1-2.8-0.3-4.1-0.6c-1-0.2-2-0.4-3-0.7c-0.3-0.2,0.9-0.3,2.5-0.2l2.6,0.1c0.9,0,1.7,0,2.4-0.1l2.2,0.8c2.2,0.1,4.5-0.3,6.6-1
	c1-0.3,2-0.5,3.1-0.7c1.8-0.4,3.6-0.6,5.4-0.8c-1.5,0.5-1.5,0.7-0.7,0.8c0.6,0.1,1.3,0.1,1.9,0.1c0.8,0,1.8-0.1,2.9-0.2l3.5-0.4
	c1.2-0.1,2.5-0.4,3.7-0.5l3.5-0.5l2.9-0.5c3.4-1.9,3-2.2,2.6-2.4c-0.2-0.1-0.5-0.2-0.3-0.5c0.6-0.6,1.3-1.2,2.1-1.6
	c1.7-0.6,3.6-1.2,5.7-2s4.2-1.7,6.3-2.6c4.3-1.9,8.7-4.1,12.6-6c-2.2,1.3-3.8,2.1-4.9,2.6c-0.6,0.3-1.1,0.6-1.6,1
	c-0.2,0.2,1.1-0.2,2.6-0.7c1.1-0.4,2.2-0.8,3.3-1c0.3,0.1-0.6,0.9-4.3,2.9c1.6-0.7,3-1.5,4.5-2.2s2.8-1.7,4.4-2.6
	c3.1-0.1-4,3.6,0.7,2.2l0.8-1.6c2.3-1,4.3-1.7,6.7-2.8c3.3-1.6,6.4-3.5,9.3-5.8c2.3-2.8,4.8-5.3,7.6-7.6c0.9-0.2,1.8-0.7,2.5-1.3
	c2.2-1.8,4.3-3.8,6.3-6c2.6-3.7,3-4.8,2.2-4.4s-2.9,2.5-5.6,4.8c-2.7,2.3-5.9,5.1-8.7,7.2s-5.3,3.6-6.2,3.8
	c-1.3,0.9-2.4,1.8-3.6,2.6c-1.1,0.8-2.3,1.5-3.3,2.1s-2.1,1.3-3.1,1.8s-2,1-2.9,1.4s-1.8,0.9-2.7,1.2s-1.8,0.7-2.6,1
	c-1.7,0.6-3.4,1.2-5.1,1.7l-5.4,1.6c-1.9,0.5-4,1.1-6.2,1.8c-1.1,0.3-2.3,0.6-3.6,1l-1.9,0.6l-2.2,0.5l-4.5,1.2
	c-1.6,0.4-3.3,0.8-5.1,1.2c-2.2,0.9-2.9,1.2-4.1,1.7c-0.6,0.2-1.4,0.5-2.5,0.8s-2.7,0.6-4.9,1.1c-2.9,1.3,0.4,1.1,5.2,0.5l3.8-0.7
	c1.3-0.2,2.6-0.5,3.8-0.8c2.5-0.6,4.7-0.9,6.1-1.2c-1.3,0.6-2.6,1.1-3.9,1.5c-1.3,0.4-2.5,0.8-3.9,1l0.5,0.1l1.1,0.1l1.6,0.1
	l-2.4,0.7c-0.7,0.2-1.4,0.3-2,0.5c-1.2,0.3-2.2,0.5-3,0.6c-1.2,0.2-2.3,0.2-3.5,0.1c-1-0.1-2.1-0.1-3.1,0c-1.4,0.2-3.4,0.4-6.5,0.9
	l2.8-0.6l-3.6,0.6c-0.9,0.2-1.8,0.3-2.5,0.4l-1.1,0.1l1.7,0c-2.2,0.2-3.7,0.5-5.5,0.8c-2.4,0.3-4.9,0.4-7.3,0.3l5.8-0.8
	c-3.9,0.6-4.9-0.5-10.4-0.4c3.1-0.4,4-0.8,5.9-0.9c-7.4-0.4-14.8-1.2-22.2-2.4c-3-0.5-5.9-0.9-8.8-1.6c-1.4-0.3-2.9-0.6-4.3-1
	l-4.3-1.2c-5.6-1.7-11.1-3.8-16.4-6.3c-10.4-4.9-20.1-11.4-28.7-19.1c0.7,0.7,1.5,1.6,1.9,2c-0.8-0.6-1.6-1.1-2.2-1.7
	s-1.2-1.1-1.7-1.6c-0.9-1-1.8-2-2.5-3l-4.4-4.6l-4.1-4.8c-1.5-1.7-3-3.3-4.4-5s-2.8-3.3-4.1-5.1c-3-3.9-5.7-8.1-8-12.4
	c0.2-0.7,0.8-0.2,1.5,1c-2.1-3.4-3.5-5.5-2-1.8c-0.5-0.8-0.9-1.4-1.2-2.1l-1-1.9c-0.6-1.2-1.1-2.3-1.6-3.4c-0.9-2.1-1.6-4.1-2.6-6.5
	l0.2,0.4l0.7,1.2l2,3.6c0.7,1.3,1.5,2.5,2.1,3.5l1,1.6c-0.6-1.6-1.5-3.1-2.5-4.4c-1.1-1.8-2.1-3.7-2.8-5.7c-2.1-4.8-1.9-3.7-1.3-1.4
	l0.4,1.9c0.2,0.6,0.4,1.2,0.5,1.8c0.3,1.1,0.4,1.8,0.1,1.6l-0.8-2c-0.4-1-0.8-2-0.8-2s0.1,1.2,0.4,2.3l0.4,2.3
	c-2.4-5.6-3.9-11.5-4.5-17.6c0,0,0.3,1.6,0.8,3.3l0.9,3.2c1,1,0.1-1.7-1-5c-0.5-1.7-1-3.5-1.5-5.1c-0.4-1.2-0.6-2.5-0.6-3.8l0.3,0.9
	c-2.2-10.1-0.1,2.3-1.8-4.5l-0.5-6.2l-0.3-6.2l-0.6,2.2c-0.2-0.9-0.4-1.9-0.5-3s-0.2-2.3-0.2-3.5c-0.2-2.5-0.1-5.3,0-8.3
	c0.3-6.1,0.9-12.2,1.9-18.2c1.1-6.7,2.2-15.6,4.9-23.9c-0.3,0.7-0.9,1.9-1.2,2.7s-0.6,1.4-0.6,0.8c0.3-1.3,0.9-2.8,1.5-4.5
	s1.1-3.3,1.8-4.7c1.2-2.7,2.1-4.3,1.7-2.3c0,0,0.5-1.8,1.1-3.5l1.1-3.4c0.9-1.9,2-3.7,3.2-5.5l-1.2,1.6l0.6-1.2l0.6-1.3l0.8-1.4
	l2.1-3.9c0.3-0.2,0.6-0.4,0.8-0.7c0.3-0.1,0.1,0.1-0.9,2l2.2-3c0.7-1.1,1.5-2.2,2.2-3.4c1.6-2.2,3.1-4.8,5-7.3s3.8-5.1,6-7.8
	c1.2-1.3,2.4-2.6,3.6-3.9c1.3-1.3,2.7-2.5,4.1-3.8l-3,3.5c1.5-1.7,2.8-2.9,3.9-3.9s2.2-1.7,3.2-2.5c2.1-1.5,4.3-3,8-6.2l-1.1,0.4
	l-1,0.4c1.3-1.2,3.2-2.4,5-3.7s3.8-2.3,5.6-3.3c3.5-1.9,6.2-2.9,5.4-2.2c0-2,3.8-1.5,7-4.7l4.5-0.4c1-0.6,2-1.1,2.9-1.5
	s1.7-0.9,2.3-1.2c1.1-0.7,1.4-1-0.2-0.8c7-1.9,12.6-3.4,16.3-5.2c0.1,0,0.1-0.1,0.2-0.1l0.1-0.1l0,0c0.8-0.2,2.9-0.7,4.4-1
	c1.5-0.3,2.5-0.6,0.9-0.6c2-0.4,3.7-0.7,5.1-0.8s2.5-0.2,3.4-0.3c1.3-0.1,2.7-0.1,4,0c2.1,0.2,4.1,0.2,11.9,0.1l0.6-1.1
	c12,0.4,23.9,1.2,33,3l0.9,1.2c3,0.7,2.8,0.4,3,0.3s0.8-0.3,5.5,1.2c1.2,0.6,2.3,1.2,2,1.4c1.1,0.4,2.3,0.9,3.4,1.3s2.4,0.9,3.7,1.5
	c2.5,1.2,5.1,2.4,7.8,3.9s5.4,3.1,8.3,4.8l4.2,2.8c1.5,0.9,2.8,2,4.3,3c-0.9-0.3-1.8-0.8-2.6-1.3l4.1,3l4.8,3.5l4.8,3.8
	c1.6,1.3,3,2.6,4.4,3.8c1.3,1.6,2.7,3.3,4.1,5s2.8,3.7,4.2,5.6c1.5,1.9,2.8,4,4.2,6.2c1.4,2.2,2.8,4.3,4.1,6.6
	c2.8,4.5,5.2,9.4,7.5,14.3l1.6,3.8l0.8,1.9l0.7,1.9l1.5,3.8l1.3,3.8c7.3,15,10.5,26.1,13.4,27.5c0.6-2.3,0.9-7.9,0.1-16
	C289.7,113.1,287.2,103.2,283.4,93.7z"/>
<text transform="matrix(1 0 0 1 62.6991 163.2966)" class="st2 st3 st4">Farm Fresh</text>
</svg>
