<svg id="Layer_1" data-name="Layer 1" xmlns="http://www.w3.org/2000/svg" viewBox="0 0 283.26 272.71"><defs><style>.cls-1{fill:#f29d33;}.cls-2{font-size:46.71px;fill:#f1f2f2;font-family:Proxima Nova;}</style></defs><title>circles</title><circle class="cls-1" cx="142.74" cy="131.65" r="131.57"/><path class="cls-1" d="M276,88.66a136,136,0,0,1,6,62.17l-0.26,2c-0.1.67-.23,1.35-0.34,2l-0.72,4c-0.51,2.69-1.19,5.36-1.81,8a143,143,0,0,1-5.15,15.79,137.12,137.12,0,0,1-15.84,29.41,142.4,142.4,0,0,1-49.5,43.63,143.9,143.9,0,0,1-60.81,16.69,139.3,139.3,0,0,1-72.24-15.8A141.88,141.88,0,0,1,19.66,59.3c0.76,0.49-2.09,8.19,2.35,1.38,1-1.73,2.19-3.25,3.21-4.7s2-2.79,3-4l2.72-3.34c0.87-1,1.72-1.9,2.49-2.73l2.15-2.26c0.68-.67,1.33-1.24,1.91-1.77,1.18-1,2.15-1.85,3-2.46,3.33-2.34,4-1.67,4.65-1.05,0.17,0.16-.77,1.29-2.14,2.83s-3.09,3.59-4.62,5.48-2.86,3.63-3.48,4.53-0.52,1,.84-0.43A131.82,131.82,0,0,0,25.36,66.88c-0.82,1.41-1.48,2.9-2.21,4.3l-1,2.1c-0.34.7-.62,1.4-0.93,2.09l-1.71,4c-0.5,1.28-.94,2.5-1.36,3.63S17.29,85.13,17,86.1l-0.76,2.57a24,24,0,0,0-.71,2.84c0,0.74.7-1.05,2.84-6.4,0.94-1.7,2.17-4.81,4-8.45,0.44-.91.86-1.89,1.37-2.86l1.56-3c1-2.06,2.26-4.11,3.45-6.17l0.9-1.54,1-1.49,1.92-2.93c1.27-1.92,2.64-3.65,3.85-5.28s2.48-3,3.52-4.16a22,22,0,0,1,2.76-2.69c3-2.43,2.26-.53,1.56,1.32s-1.38,3.67,1.55,1.33c1.22-1.38,2.67-3.17,4.46-5,0.88-.91,1.77-1.88,2.73-2.84l3-2.84c1-1,2-1.87,3.05-2.75s2-1.76,3-2.57c2-1.55,3.77-3,5.27-4.09,3.26-1.76,2.14-.13,1,1.37A8.39,8.39,0,0,0,67,32.33c-0.05.3,0.34,0.07,1.8-1a172.52,172.52,0,0,1,14.91-9,143.5,143.5,0,0,1,17.74-7.72,125.34,125.34,0,0,1,41.28-7.17c0,0.45,1.9.91,1.91,1.31,0,0.2-.47.38-1.89,0.55s-3.53.36-7,.64A120.42,120.42,0,0,0,91.2,21.38,121.24,121.24,0,0,0,21.67,133.09a119.75,119.75,0,0,0,9.47,45.12,120.59,120.59,0,0,0,220.17,4.72,119.07,119.07,0,0,0,11.25-44.32A120.68,120.68,0,0,0,155.24,11.76c-6.92-.75-10.86-0.87-12.5-1.21-0.89-.13-1.16-0.27-0.9-0.42A7.52,7.52,0,0,1,144,9.68c4.4-.69,15.16-1,25.8.79-7.08-1-6.88-2.31-14.1-2.77,0-.34,1-0.62,2.82-0.8q1.39-.13,3.47-0.19c1.38,0,3,.11,4.83.24a89,89,0,0,1,13.66,2.28,108.94,108.94,0,0,1,18.33,6.52,129.71,129.71,0,0,0-20.82-7.89c-7-2.47.34-1.32,0.62-2.18l2.72,0.77c0.9,0.26,1.75.58,2.6,0.85,1.68,0.58,3.27,1,4.6,1.54,2.66,1,4.46,1.58,4.55,1.37l0.7-1.68A135.05,135.05,0,0,0,164.17.15c7.62,1.13,15,3.36,15.13,2.91l0.5-1.75a114.39,114.39,0,0,1,25.42,10.1,165,165,0,0,1,22.87,15l0.86-1.06a117.66,117.66,0,0,0-23-15.3A140.15,140.15,0,0,0,180.17,0,68.08,68.08,0,0,0,187,1.36c1,0.05,1.15-.27,1.3-0.7l2.15,0.69,2.11,0.8,4.2,1.63,4.11,1.86,2,0.94,2,1,4,2.09L212.81,12l1.94,1.15,1.88,1.24,3.76,2.48a188.6,188.6,0,0,1,27.28,23.45,141.49,141.49,0,0,0-17.29-16.72,62.21,62.21,0,0,1,5.83,4.09c1.08,0.82,2.13,1.78,3.25,2.76s2.31,2,3.42,3.16a115.71,115.71,0,0,1,13.81,16.29,133.55,133.55,0,0,1,11.59,19.71A173.42,173.42,0,0,1,276,88.66Z"/><text class="cls-2" transform="translate(49.48 135.22)">Certified <tspan x="12.29" y="40">Organic</tspan></text></svg>