<?xml version="1.0" encoding="utf-8"?>
<!-- Generator: Adobe Illustrator 19.2.1, SVG Export Plug-In . SVG Version: 6.00 Build 0)  -->
<svg version="1.1" id="Layer_1" xmlns="http://www.w3.org/2000/svg" xmlns:xlink="http://www.w3.org/1999/xlink" x="0px" y="0px"
	 viewBox="0 0 308.5 300" style="enable-background:new 0 0 308.5 300;" xml:space="preserve">
<style type="text/css">
	.st0{fill:#6FA543;}
	.st1{fill:none;}
	.st2{fill:#F1F2F2;}
	.st3{fill:#F29D33;}
	.st4{font-family:'ProximaNova-SemiboldIt';}
	.st5{font-size:36px;}
	.st6{fill:#A13223;}
</style>
<g>
	<circle class="st3" cx="155.4" cy="150.4" r="131.6"/>
	<g>
		<g>
			<path class="st3" d="M288.7,107.5c6.6,18.9,8.9,40.6,6,62.2l-0.3,2c-0.1,0.7-0.2,1.3-0.3,2c-0.2,1.3-0.5,2.7-0.7,4
				c-0.5,2.7-1.2,5.4-1.8,8c-1.5,5.3-3.1,10.6-5.2,15.8c-4.1,10.3-9.3,20.3-15.8,29.4c-12.8,18.3-30.2,33.4-49.5,43.6
				c-9.7,5.1-19.8,9.1-30,11.9c-10.3,2.8-20.6,4.3-30.8,4.8c-24.3,1.4-49.8-4-72.2-15.8c-22.5-11.8-41.8-30-55.1-52.1
				c-13.4-22-20.3-47.8-20.3-73.3c0.1-25.5,7-50.7,19.7-72c0.8,0.5-2.1,8.2,2.3,1.4c1-1.7,2.2-3.2,3.2-4.7c1-1.5,2-2.8,3-4
				c1-1.2,1.9-2.3,2.7-3.3c0.9-1,1.7-1.9,2.5-2.7c0.8-0.8,1.5-1.6,2.2-2.3c0.7-0.7,1.3-1.2,1.9-1.8c1.2-1,2.1-1.8,3-2.5
				c3.3-2.3,4-1.7,4.7-1.1c0.2,0.2-0.8,1.3-2.1,2.8c-1.3,1.6-3.1,3.6-4.6,5.5c-1.5,1.9-2.9,3.6-3.5,4.5c-0.6,0.9-0.5,1,0.8-0.4
				C44.8,74.3,41,79.9,38,85.7c-0.8,1.4-1.5,2.9-2.2,4.3c-0.4,0.7-0.7,1.4-1,2.1c-0.3,0.7-0.6,1.4-0.9,2.1c-0.6,1.4-1.2,2.7-1.7,4
				c-0.5,1.3-0.9,2.5-1.4,3.6c-0.4,1.1-0.8,2.2-1.1,3.1c-0.3,1-0.5,1.8-0.8,2.6c-0.4,1.5-0.7,2.5-0.7,2.8c0,0.7,0.7-1.1,2.8-6.4
				c0.9-1.7,2.2-4.8,4-8.5c0.4-0.9,0.9-1.9,1.4-2.9c0.5-1,1-2,1.6-3c1-2.1,2.3-4.1,3.5-6.2l0.9-1.5c0.3-0.5,0.6-1,1-1.5
				c0.6-1,1.3-2,1.9-2.9c1.3-1.9,2.6-3.6,3.8-5.3c1.2-1.6,2.5-3,3.5-4.2c1-1.2,2-2.1,2.8-2.7c3-2.4,2.3-0.5,1.6,1.3
				c-0.7,1.9-1.4,3.7,1.6,1.3c1.2-1.4,2.7-3.2,4.5-5c0.9-0.9,1.8-1.9,2.7-2.8c1-0.9,2-1.9,3-2.8c1-1,2-1.9,3.1-2.8
				c1-0.9,2-1.8,3-2.6c2-1.5,3.8-3,5.3-4.1c3.3-1.8,2.1-0.1,1,1.4c-0.6,0.7-1.1,1.5-1.2,1.8c-0.1,0.3,0.3,0.1,1.8-1
				c4.5-3,9.5-6,14.9-9c5.5-2.8,11.4-5.5,17.7-7.7c12.6-4.5,26.9-7.1,41.3-7.2c0,0.5,1.9,0.9,1.9,1.3c0,0.2-0.5,0.4-1.9,0.5
				c-1.3,0.2-3.5,0.4-7,0.6c-15.4,0.9-30.6,4.8-44.5,11.4c-13.9,6.6-26.6,15.9-37.1,27.2c-10.5,11.3-18.9,24.7-24.4,39.1
				c-5.5,14.4-8.2,29.9-8,45.4c0.2,15.5,3.4,30.9,9.5,45.1c6,14.2,14.8,27.3,25.7,38.2c10.9,11,23.9,19.8,38.1,25.9
				c14.2,6.1,29.5,9.3,45,9.6c15.4,0.3,30.9-2.3,45.3-7.8c14.4-5.5,27.7-13.8,39-24.2c11.3-10.5,20.5-23.1,27.1-37
				c6.6-13.9,10.4-29,11.3-44.3c0.9-15.3-1.2-30.8-6-45.3c-4.8-14.5-12.5-28-22.4-39.7c-9.9-11.6-22-21.4-35.5-28.5
				c-13.5-7.2-28.3-11.7-43.4-13.4c-6.9-0.8-10.9-0.9-12.5-1.2c-0.9-0.1-1.2-0.3-0.9-0.4c0.3-0.2,1-0.3,2.1-0.5
				c4.4-0.7,15.2-1,25.8,0.8c-7.1-1-6.9-2.3-14.1-2.8c0-0.3,1-0.6,2.8-0.8c0.9-0.1,2.1-0.2,3.5-0.2c1.4,0,3,0.1,4.8,0.2
				c3.7,0.3,8.2,1,13.7,2.3c5.4,1.4,11.6,3.4,18.3,6.5c-6.7-3.2-13.7-5.9-20.8-7.9c-7-2.5,0.3-1.3,0.6-2.2c0.9,0.3,1.8,0.5,2.7,0.8
				c0.9,0.3,1.8,0.6,2.6,0.9c1.7,0.6,3.3,1,4.6,1.5c2.7,1,4.5,1.6,4.6,1.4c0.2-0.4,0.5-1.3,0.7-1.7c-3.6-1.4-9-3.5-14.5-5
				c-5.5-1.6-11.2-2.7-15-3.3c7.6,1.1,15,3.4,15.1,2.9c0.1-0.4,0.4-1.3,0.5-1.7c7.6,1.9,16.8,5.5,25.4,10.1
				c8.6,4.6,16.7,10.2,22.9,15l0.9-1.1c-6-5.2-14.2-10.8-23-15.3c-8.8-4.5-18.1-7.9-25.8-10c3.9,0.8,5.8,1.3,6.9,1.4
				c1,0.1,1.1-0.3,1.3-0.7l2.1,0.7l2.1,0.8l4.2,1.6l4.1,1.9l2,0.9l2,1l4,2.1l3.9,2.3l1.9,1.2l1.9,1.2l3.8,2.5
				c9.8,6.9,18.9,14.8,27.3,23.5c-5.3-6.1-11.1-11.7-17.3-16.7c1.8,1,3.7,2.5,5.8,4.1c1.1,0.8,2.1,1.8,3.3,2.8c1.1,1,2.3,2,3.4,3.2
				c4.7,4.5,9.4,10.1,13.8,16.3c4.4,6.2,8.4,13,11.6,19.7C284.1,95.1,286.7,101.7,288.7,107.5z"/>
		</g>
	</g>
</g>
<text transform="matrix(1 0 0 1 81.7359 144.4984)"><tspan x="0" y="0" class="st2 st4 st5">Certified </tspan><tspan x="9.2" y="36" class="st2 st4 st5">Organic</tspan></text>
</svg>
