<svg id="Layer_1" data-name="Layer 1" xmlns="http://www.w3.org/2000/svg" viewBox="0 0 274.8 268.74"><defs><style>.cls-1{fill:#e93f33;}.cls-2{font-size:46.71px;fill:#f1f2f2;font-family:Proxima Nova;}.cls-3{letter-spacing:-2px;}</style></defs><title>circles</title><circle class="cls-1" cx="135.15" cy="131.57" r="131.57"/><path class="cls-1" d="M111.42,10.24L101,11.93c-1.15.17-2.07,0.26-2.82,0.3a15.58,15.58,0,0,1-1.81.06c-2,0-2.47-.74-6.15,0l0.4-.18c0.26-.11.62-0.29,1.07-0.46L95,10.37c1.19-.47,2.39-1,3.31-1.24l1.52-.51a107.66,107.66,0,0,1,21.53-3,65.29,65.29,0,0,1,7.41.2c1.59,0.25,2.14.54,1.16,0.87-0.64.07-3.25,0.71-6.71,1.31-1.73.32-3.65,0.78-5.67,1.12-1,.16-2,0.38-3.05.59S112.44,10.09,111.42,10.24Z"/><path class="cls-1" d="M133.73,2.44c-1.93.08-2.25-.11-4.17,0l5.59-1.64Z"/><path class="cls-1" d="M76.8,19s-2.12,1.07-4.13,2.33L69.87,23c-0.39.22-.69,0.43-0.91,0.58l-0.34.23c-1,.52-0.36,0,0.45-0.66a9,9,0,0,0,1.69-1.38l-1.5.75L66,24.32c-1.17.67-2.36,1.3-3.2,1.86l-1.43.9,2.14-1.42,1.91-1.18c1.19-.74,2.2-1.39,3.07-2l3.92-2.39A5.57,5.57,0,0,1,76.8,19Z"/><path class="cls-1" d="M1.1,117.36c-0.41,1.88-.63,2.46-0.81,2.2A7.88,7.88,0,0,1,0,116.79c0-1.42.06-3.18,0.11-4.79s0.18-3.05.13-3.86c0.32-1.59.65-3.13,1-4.44a29.22,29.22,0,0,1,1.15-3.14c0.68-1.47,1.09-1.49.85,1.07-0.24,1-.47,2-0.65,2.86L2.2,107c-0.24,1.55-.43,2.88-0.58,4.07C1.43,113.49,1.32,115.35,1.1,117.36Z"/><path class="cls-1" d="M34.89,54.81a19.36,19.36,0,0,1,2.72-4.6c1.49-1.91,3.26-4.2,5.12-6.16,0.91-1,1.77-2,2.59-2.85s1.56-1.62,2.14-2.26c1.15-1.29,1.68-2.07,1.07-2a9,9,0,0,0-4.23,1.92s-0.47.48-1.11,1.25L40.83,43l-1.25,1.52c-0.39.49-.73,1-1,1.37l-1,1.34c-2.28,2.44-3.71,4.27-4.76,5.43A16.29,16.29,0,0,1,31,54.54c-0.23.14-.15-0.17,0.1-0.73s0.73-1.33,1.23-2.18a39.08,39.08,0,0,0,2.33-4.29c0.17-.65-0.79-0.15-3.86,3.27-0.6.79-1.13,1.47-1.58,2.09l-1.14,1.69c-0.66,1-1.13,1.78-1.52,2.52-4.3,7.87-2.49,5.87.85,2-6.9,10.77-9.1,14.13-11.2,15.94a27.12,27.12,0,0,0-2.72,2.78,15.68,15.68,0,0,0-1.53,2.36c-0.52,1-1.09,2.32-1.75,4C7,93.28,7.52,95.37,8.19,95.59s2-1.26,1.82,1.08c-0.55-.21-1.77,1.68-3.06,5.2-0.33.88-.69,1.85-1.06,2.92s-0.65,2.24-1,3.49-0.73,2.56-1,4L3,116.67a114.55,114.55,0,0,0-1.65,20.78,121.16,121.16,0,0,0,2.41,22.26,184.89,184.89,0,0,0,6.23,20c0.67,1.67,1.24,3.39,2,5.05l2.2,5,2.45,5c0.83,1.68,1.79,3.3,2.69,5a115,115,0,0,0,30.76,35.5,136.57,136.57,0,0,0,19.13,13.73A127.24,127.24,0,0,0,93.7,260.28a1.58,1.58,0,0,1-.12.36,0.88,0.88,0,0,0,.8-0.1,56.22,56.22,0,0,0,5.48,2.08c1,0.37,2.12.67,3.26,0.95l3.51,0.87c2.4,0.57,5,.94,7.49,1.4s5.13,0.65,7.63.9,4.92,0.38,7.18.49,4.34,0.17,6.16.3c3.65,0.09,6.26.37,7.12,1l3.31-.49c4.14-.31,6.2-0.63,7.13-0.64s0.73,0.15.32,0.37c-0.83.45-2.56,1.11,2.27,0.77a193.74,193.74,0,0,0,24.33-5.29c1.94-.59,3.83-1.17,5.57-1.88s3.42-1.31,4.9-2a28.35,28.35,0,0,0,6.9-4.31c1.19-.43-0.24.43,1,0l1.72-1c0.51-.29,1.12-0.61,1.76-1l2-1.21c1.34-.83,2.68-1.64,3.67-2.28l1.62-1.11c0.41-.92,2.15-2.84.09-2.22,2.48-1.48,4.11-3.51,7.56-5.73,8.12-6.36,1.68.15,4.91-1.77a148,148,0,0,0,14.54-14.05,160.71,160.71,0,0,0,12.86-16.31A172.58,172.58,0,0,0,259,190.74a187.13,187.13,0,0,0,7.77-18c0.9,0.31,3.58-6.5,5.37-15.16a114.42,114.42,0,0,0,2-13.53c0.14-2.23.36-4.36,0.39-6.34l0.08-5.3a87.24,87.24,0,0,0-.72-18.88c-0.38-3.19-1.09-6.33-1.75-9.45-0.34-1.56-.8-3.09-1.2-4.61s-0.81-3-1.33-4.52l-1.45-4.41c-0.51-1.44-1.08-2.85-1.6-4.25-1-2.82-2.25-5.46-3.3-8.07l-3.33-7.41c-1.15-2.32-2.09-4.61-3.07-6.72a79.19,79.19,0,0,1,8.73,17.32l0.85,2.19,0.71,2.09c0.46,1.34.9,2.56,1.3,3.62,0.76,2.13,1.32,3.62,1.81,4l-0.39-2.54c-0.1-.64-0.19-1.28-0.3-1.75l-0.16-.79a126.15,126.15,0,0,0-6.92-19c-0.76-1.55-1.53-3.07-2.27-4.51s-1.59-2.75-2.34-4a30.84,30.84,0,0,0-4.25-5.63c0.7,1.45,1.19,2.59,1.55,3.5a21,21,0,0,1,.67,2.24c0.28,1.19.31,1.9,0.57,3-1.43-2.1-2.32-3.28-3.36-4.55s-2.15-2.67-4-5.22c-1.37-1.84-2.7-3.78-4-5.56s-2.62-3.47-3.71-4.94c-2.26-2.88-3.67-5-3.31-5.33a65.65,65.65,0,0,1,5.14,5.8c1.55,2.07,3.13,4,4.46,5.93,0.47,0.18.23-.52-0.44-1.76s-1.9-2.92-3.25-4.8-3-3.8-4.44-5.61-2.9-3.29-3.78-4.36c2.45,4.41-1,2.09-2.89,1.26-0.95-.42-1.53-0.47-0.82.78a27.13,27.13,0,0,0,2.1,3c1.12,1.39,2.53,3.33,4.45,5.87l-1.49-1.59c-0.89-1-2.06-2.25-3.34-3.44s-2.49-2.44-3.44-3.33l-1.63-1.44c-2.31-1.43-1.52-.09.62,2.43,1,1.3,2.36,2.95,3.83,4.7s2.9,3.76,4.33,5.62,2.61,3.78,3.62,5.34a34.22,34.22,0,0,1,2,3.66c0.61,1.55-.33.91-4.28-3.4-1-.73-1.16-0.35-1.74-0.53a4,4,0,0,1-1.33-.87c-0.65-.55-1.53-1.48-2.94-2.83,0.26,0.48.58,1,.94,1.53s0.71,1.15,1.12,1.75c0.81,1.21,1.76,2.46,2.68,3.7,1.78,2.53,3.69,4.85,4.8,6.21,0.9,2.88,5.06,9.91,8.06,16.84a78.9,78.9,0,0,1,3.53,9.45c0.66,2.64.91,4.47,0.39,4.84,0.58,1.23,1,2.48,1.43,3.68s0.83,2.37,1.19,3.51c0.61,2.32,1.19,4.51,1.59,6.64s0.67,4.18.85,6.18,0.25,4,.31,5.89l-0.1,5.8-0.38,5.92c-0.14,2-.42,4.1-0.58,6.27s-0.55,4.44-.76,6.86L257.23,148c-0.18,1.23-.28,2.32-0.48,3.27-0.34,1.9-.55,3.31-0.66,4.35-0.25,2.06-.21,2.62.1,2.66,0.58,0.09,1.89-2,1.71,1.7-0.82,3-1.83,6-2.63,9-1,2.9-1.76,5.81-2.73,8.48-1.74,5.42-3.64,10.17-5.15,13.73a37.43,37.43,0,0,1-2.35,3.95,20,20,0,0,1-1.8,2.42c-1,1-1.14.75-.11-1.3a130.42,130.42,0,0,1-58.22,48.49,126.53,126.53,0,0,1-18.08,6A134.4,134.4,0,0,1,148.12,254a140.11,140.11,0,0,1-19,.38,139.25,139.25,0,0,1-18.72-2.43c-9.83-2.88-19.16-5.89-28-10.06a77.75,77.75,0,0,1-23.81-17l2.29,2.4c0.21,0.51-1.89-.94-3.52-2.13,2.24,2.46,4.41,4.89,6.65,7.06-2.42-1.77-4.68-3.75-7-5.64s-4.51-3.94-6.62-6c-3.11-1.51-9.14-7.69-14.4-14.74s-9.75-14.89-12.43-18.32c-1-1.86-1.65-3.65-2.34-5.25-0.34-.81-0.68-1.57-1-2.31l-0.77-2.14c-0.48-1.36-.94-2.58-1.3-3.71l-0.91-3.11c-0.27-.94-0.52-1.79-0.72-2.58l-0.48-2.21c-0.29-1.37-.54-2.56-0.76-3.76l-0.57-3.8-0.36-2.24-0.32-2.67-0.42-3.2-0.34-3.91-0.21-2.25L13,141.8c-0.05-1.74-.24-3.62-0.18-5.7A121.09,121.09,0,0,1,14,107.29a108.15,108.15,0,0,1,9.7-29.88c0.9-1.71,1.82-3.36,2.69-4.84s1.84-2.73,2.6-3.77a15.63,15.63,0,0,1,1.87-2.22c0.44-.43.67-0.52,0.58-0.2l1.9-3.07c0.69-1,1.45-2.1,2.21-3.2l1.16-1.66c0.39-.56.83-1.09,1.25-1.64l2.58-3.31c1.85-2.11,3.62-4.31,5.54-6.23,0.95-1,1.83-2,2.76-2.85l2.7-2.55c0.86-.94,1.72-1.75,2.52-2.51l2.21-2.14c1.36-1.32,2.58-2.34,3.52-3.25a41,41,0,0,0,3.38-3.32c0.36-.51,0-0.5-0.92-0.08-0.46.21-1.05,0.52-1.76,0.91S59,32.42,58.15,33s-1.86,1.24-2.88,2l-3.14,2.44c-0.54.43-1.11,0.86-1.66,1.32l-1.64,1.44c-1.09,1-2.25,1.93-3.31,3l-3.15,3.11c-1,1-2,2.1-2.87,3.1C37.62,51.33,36.14,53.28,34.89,54.81Z"/><path class="cls-1" d="M257.34,200.86c0,0.51.43,0.28,1.06-.4,0.31-.34.68-0.8,1.09-1.33s0.8-1.17,1.23-1.84c0.86-1.34,1.79-2.84,2.62-4.23s1.49-2.69,2-3.53l0.9-2.43,0.79-2.47q0.82-2.28,1.39-4c0.35-1.19.59-2.21,0.78-3.05a9.34,9.34,0,0,0,.39-3.11c-0.21-.8-1.28.88-2.9,4.59a16.26,16.26,0,0,1-.91,3.88c-0.27.86-.59,1.82-1,2.83s-0.83,2-1.28,3.13l-1.45,3.28c-0.51,1.09-1.09,2.15-1.62,3.2l-1.59,3C258.36,199.24,257.82,200.09,257.34,200.86Z"/><path class="cls-1" d="M179.75,265.58L181,264l-2.31.84c-1.38.54-3.26,1.12-5.14,1.69s-3.76,1.17-5.2,1.5l-2.39.61c0.28,0.29,2.3,0,5-.55S176.91,266.57,179.75,265.58Z"/><path class="cls-1" d="M194.57,12.85A102.61,102.61,0,0,1,208.89,22c3.95,3.1,8,6.13,13.66,10.93l-0.8-3.37A132.24,132.24,0,0,0,204.08,15.1,102.31,102.31,0,0,0,181.71,3.65c-3-.47-3.26-0.18-2.07.5s3.79,1.85,6.54,3.12c1.39,0.6,2.76,1.37,4,2s2.45,1.29,3.34,1.87C195.32,12.35,196,13.07,194.57,12.85Z"/><path class="cls-1" d="M217.73,32.39c-5.14-3.62-10.5-7.28-16.12-10.69a151.51,151.51,0,0,0-17.55-9A101.35,101.35,0,0,0,166,6.92q-2.24-.44-4.42-0.84c-1.46-.24-2.91-0.37-4.33-0.52A60.58,60.58,0,0,0,149,5.28c2.61,2.69,12.7,3.83,23.81,6.86a128.2,128.2,0,0,1,16.48,5.68A63.31,63.31,0,0,1,202,25.07l3.22,1.82c1,0.6,2,1.23,2.92,1.81s1.89,1.16,2.8,1.77l2.71,1.89a109.58,109.58,0,0,1,12.28,10c3.69,3.15,2.91,1.79.62-1-1.14-1.4-2.78-3-4.36-4.7S218.94,33.54,217.73,32.39Z"/><path class="cls-1" d="M142.6,2.53a69.6,69.6,0,0,0-7.45.09c-2,.36,3.14.83,5.43,1.21a31.65,31.65,0,0,0,4.93-.22C146.66,3.39,146.5,3,142.6,2.53Z"/><text class="cls-2" transform="translate(38.53 120.51)"><tspan class="cls-3">V</tspan><tspan x="27.8" y="0">ariety of</tspan><tspan x="22.84" y="40">Flavors</tspan></text></svg>