<?xml version="1.0" encoding="utf-8"?>
<!-- Generator: Adobe Illustrator 19.2.1, SVG Export Plug-In . SVG Version: 6.00 Build 0)  -->
<svg version="1.1" id="Layer_1" xmlns="http://www.w3.org/2000/svg" xmlns:xlink="http://www.w3.org/1999/xlink" x="0px" y="0px"
	 viewBox="0 0 308.5 300" style="enable-background:new 0 0 308.5 300;" xml:space="preserve">
<style type="text/css">
	.st0{fill:#6FA543;}
	.st1{fill:none;}
	.st2{fill:#F1F2F2;}
	.st3{fill:#F29D33;}
	.st4{fill:#A13223;}
	.st5{font-family:'ProximaNova-SemiboldIt';}
	.st6{font-size:36px;}
</style>
<g>
	<circle class="st4" cx="154.2" cy="150.4" r="131.6"/>
	<g>
		<g>
			<g>
				<path class="st4" d="M130.4,29.1c-4.9,0.8-8.1,1.3-10.4,1.7c-1.2,0.2-2.1,0.3-2.8,0.3c-0.7,0.1-1.3,0.1-1.8,0.1
					c-2,0-2.5-0.7-6.2,0c0,0,0.1-0.1,0.4-0.2c0.3-0.1,0.6-0.3,1.1-0.5c0.9-0.4,2.1-0.8,3.3-1.3c1.2-0.5,2.4-1,3.3-1.2
					c0.9-0.3,1.5-0.5,1.5-0.5c6.6-1.6,15.1-2.9,21.5-3c3.2-0.1,5.8,0,7.4,0.2c1.6,0.2,2.1,0.5,1.2,0.9c-0.6,0.1-3.3,0.7-6.7,1.3
					c-1.7,0.3-3.7,0.8-5.7,1.1c-1,0.2-2,0.4-3.1,0.6C132.5,28.8,131.5,29,130.4,29.1z"/>
				<path class="st4" d="M152.8,21.3c-1.9,0.1-2.2-0.1-4.2,0l5.6-1.6L152.8,21.3z"/>
				<path class="st4" d="M95.8,37.9c0,0-2.1,1.1-4.1,2.3c-1,0.6-2,1.2-2.8,1.7c-0.4,0.2-0.7,0.4-0.9,0.6c-0.2,0.1-0.3,0.2-0.3,0.2
					c-1,0.5-0.4,0,0.5-0.7c0.8-0.6,1.9-1.4,1.7-1.4c0,0-0.6,0.3-1.5,0.8c-0.9,0.5-2.1,1.1-3.2,1.8c-1.2,0.7-2.4,1.3-3.2,1.9
					C81,45.6,80.4,46,80.4,46c0.8-0.5,1.5-1,2.1-1.4c0.7-0.4,1.3-0.8,1.9-1.2c1.2-0.7,2.2-1.4,3.1-2c1.8-1.1,3-1.8,3.9-2.4
					C93.3,37.9,94,37.7,95.8,37.9z"/>
				<path class="st4" d="M20.1,136.2c-0.4,1.9-0.6,2.5-0.8,2.2c-0.2-0.3-0.3-1.3-0.3-2.8c0-1.4,0.1-3.2,0.1-4.8
					c0-1.6,0.2-3.1,0.1-3.9c0.3-1.6,0.6-3.1,1-4.4c0.4-1.3,0.8-2.4,1.2-3.1c0.7-1.5,1.1-1.5,0.8,1.1c-0.2,1-0.5,2-0.7,2.9
					c-0.1,0.9-0.3,1.7-0.4,2.5c-0.2,1.5-0.4,2.9-0.6,4.1C20.5,132.4,20.3,134.2,20.1,136.2z"/>
				<g>
					<path class="st4" d="M53.9,73.7c0.3-0.9,1.3-2.6,2.7-4.6c1.5-1.9,3.3-4.2,5.1-6.2c0.9-1,1.8-2,2.6-2.8c0.8-0.8,1.6-1.6,2.1-2.3
						c1.2-1.3,1.7-2.1,1.1-2c-1.1,0.2-2.1,0.4-4.2,1.9c0,0-0.5,0.5-1.1,1.3c-0.6,0.8-1.5,1.8-2.3,2.8c-0.4,0.5-0.9,1-1.2,1.5
						c-0.4,0.5-0.7,1-1,1.4c-0.6,0.8-1,1.3-1,1.3c-2.3,2.4-3.7,4.3-4.8,5.4c-1,1.2-1.6,1.7-1.8,1.9c-0.2,0.1-0.2-0.2,0.1-0.7
						c0.3-0.5,0.7-1.3,1.2-2.2c1-1.7,2.1-3.7,2.3-4.3c0.2-0.7-0.8-0.2-3.9,3.3c-0.6,0.8-1.1,1.5-1.6,2.1c-0.4,0.6-0.8,1.2-1.1,1.7
						c-0.7,1-1.1,1.8-1.5,2.5c-4.3,7.9-2.5,5.9,0.9,2c-6.9,10.8-9.1,14.1-11.2,15.9c-1,1-1.8,1.6-2.7,2.8c-0.5,0.6-1,1.3-1.5,2.4
						c-0.5,1-1.1,2.3-1.7,4c-3.2,9.3-2.7,11.4-2,11.6c0.7,0.2,2-1.3,1.8,1.1c-0.5-0.2-1.8,1.7-3.1,5.2c-0.3,0.9-0.7,1.9-1.1,2.9
						c-0.3,1.1-0.7,2.2-1,3.5c-0.3,1.2-0.7,2.6-1,4c-0.3,1.4-0.6,2.9-0.9,4.4c-1,6.2-1.8,13.3-1.7,20.8c0.1,7.4,0.9,15.1,2.4,22.3
						c1.6,6.6,3.7,13.3,6.2,20c0.7,1.7,1.2,3.4,2,5.1c0.7,1.7,1.5,3.4,2.2,5c0.8,1.7,1.6,3.3,2.5,5c0.8,1.7,1.8,3.3,2.7,5
						c7.5,13.1,17.7,25.7,30.8,35.5c5.3,4.5,11.7,9.3,19.1,13.7c7.4,4.4,15.7,8.3,24.5,11.2c0,0.1,0,0.2-0.1,0.4
						c0.5,0,0.8,0,0.8-0.1c1.5,0.7,3.4,1.4,5.5,2.1c1,0.4,2.1,0.7,3.3,0.9c1.1,0.3,2.3,0.6,3.5,0.9c2.4,0.6,5,0.9,7.5,1.4
						c2.6,0.3,5.1,0.6,7.6,0.9c2.5,0.2,4.9,0.4,7.2,0.5c2.3,0.1,4.3,0.2,6.2,0.3c3.6,0.1,6.3,0.4,7.1,1l3.3-0.5
						c4.1-0.3,6.2-0.6,7.1-0.6c0.9,0,0.7,0.1,0.3,0.4c-0.8,0.4-2.6,1.1,2.3,0.8c7.7-1.3,16.6-2.9,24.3-5.3c1.9-0.6,3.8-1.2,5.6-1.9
						c1.7-0.7,3.4-1.3,4.9-2c3-1.5,5.4-2.8,6.9-4.3c1.2-0.4-0.2,0.4,1,0c0,0,0.7-0.4,1.7-1c0.5-0.3,1.1-0.6,1.8-1
						c0.6-0.4,1.3-0.8,2-1.2c1.3-0.8,2.7-1.6,3.7-2.3c1-0.7,1.6-1.1,1.6-1.1c0.4-0.9,2.1-2.8,0.1-2.2c2.5-1.5,4.1-3.5,7.6-5.7
						c8.1-6.4,1.7,0.1,4.9-1.8c5-4.3,10-8.9,14.5-14.1c4.6-5.1,8.9-10.6,12.9-16.3c3.9-5.8,7.4-11.7,10.4-17.7c3-6,5.6-12.1,7.8-18
						c0.9,0.3,3.6-6.5,5.4-15.2c0.9-4.3,1.6-9.1,2-13.5c0.1-2.2,0.4-4.4,0.4-6.3c0-2,0.1-3.8,0.1-5.3c0.4-6.1,0.2-12.5-0.7-18.9
						c-0.4-3.2-1.1-6.3-1.7-9.4c-0.3-1.6-0.8-3.1-1.2-4.6c-0.4-1.5-0.8-3-1.3-4.5c-0.5-1.5-1-3-1.4-4.4c-0.5-1.4-1.1-2.9-1.6-4.3
						c-1-2.8-2.2-5.5-3.3-8.1c-1.2-2.6-2.3-5-3.3-7.4c-1.1-2.3-2.1-4.6-3.1-6.7c3.2,4.5,6.5,11.3,8.7,17.3c0.3,0.7,0.6,1.5,0.8,2.2
						c0.2,0.7,0.5,1.4,0.7,2.1c0.5,1.3,0.9,2.6,1.3,3.6c0.8,2.1,1.3,3.6,1.8,4c0,0-0.2-1.3-0.4-2.5c-0.1-0.6-0.2-1.3-0.3-1.7
						c-0.1-0.5-0.2-0.8-0.2-0.8c-1.5-5.6-4-12.7-6.9-19c-0.8-1.6-1.5-3.1-2.3-4.5c-0.7-1.4-1.6-2.7-2.3-4c-1.5-2.5-3-4.4-4.3-5.6
						c0.7,1.5,1.2,2.6,1.6,3.5c0.3,0.9,0.5,1.6,0.7,2.2c0.3,1.2,0.3,1.9,0.6,3c-1.4-2.1-2.3-3.3-3.4-4.5c-1.1-1.3-2.2-2.7-4-5.2
						c-1.4-1.8-2.7-3.8-4-5.6c-1.4-1.8-2.6-3.5-3.7-4.9c-2.3-2.9-3.7-5-3.3-5.3c1.8,1.8,3.6,3.8,5.1,5.8c1.5,2.1,3.1,4,4.5,5.9
						c0.5,0.2,0.2-0.5-0.4-1.8c-0.7-1.2-1.9-2.9-3.2-4.8c-1.3-1.9-3-3.8-4.4-5.6c-1.5-1.8-2.9-3.3-3.8-4.4c2.5,4.4-1,2.1-2.9,1.3
						c-0.9-0.4-1.5-0.5-0.8,0.8c0.3,0.6,1,1.6,2.1,3c1.1,1.4,2.5,3.3,4.5,5.9c0,0-0.6-0.6-1.5-1.6c-0.9-1-2.1-2.2-3.3-3.4
						c-1.3-1.2-2.5-2.4-3.4-3.3c-1-0.9-1.6-1.4-1.6-1.4c-2.3-1.4-1.5-0.1,0.6,2.4c1,1.3,2.4,2.9,3.8,4.7c1.4,1.8,2.9,3.8,4.3,5.6
						c1.3,1.9,2.6,3.8,3.6,5.3c0.9,1.6,1.7,2.9,2,3.7c0.6,1.5-0.3,0.9-4.3-3.4c-1-0.7-1.2-0.4-1.7-0.5c-0.3-0.1-0.7-0.3-1.3-0.9
						c-0.7-0.6-1.5-1.5-2.9-2.8c0.3,0.5,0.6,1,0.9,1.5c0.3,0.6,0.7,1.1,1.1,1.8c0.8,1.2,1.8,2.5,2.7,3.7c1.8,2.5,3.7,4.8,4.8,6.2
						c0.9,2.9,5.1,9.9,8.1,16.8c1.6,3.4,2.7,6.9,3.5,9.5c0.7,2.6,0.9,4.5,0.4,4.8c0.6,1.2,1,2.5,1.4,3.7c0.4,1.2,0.8,2.4,1.2,3.5
						c0.6,2.3,1.2,4.5,1.6,6.6c0.3,2.1,0.7,4.2,0.9,6.2c0.1,2,0.3,4,0.3,5.9c0,1.9-0.1,3.9-0.1,5.8c-0.1,1.9-0.3,3.9-0.4,5.9
						c-0.1,2-0.4,4.1-0.6,6.3c-0.2,2.2-0.5,4.4-0.8,6.9c-0.2,1.5-0.4,2.9-0.6,4.1c-0.2,1.2-0.3,2.3-0.5,3.3
						c-0.3,1.9-0.5,3.3-0.7,4.3c-0.3,2.1-0.2,2.6,0.1,2.7c0.6,0.1,1.9-2,1.7,1.7c-0.8,3-1.8,6-2.6,9c-1,2.9-1.8,5.8-2.7,8.5
						c-1.7,5.4-3.6,10.2-5.1,13.7c-0.8,1.6-1.7,2.9-2.4,3.9c-0.7,1.1-1.3,1.9-1.8,2.4c-1,1-1.1,0.8-0.1-1.3
						c-14.1,21.6-34.7,38.7-58.2,48.5c-5.9,2.4-11.9,4.5-18.1,6c-6.2,1.5-12.4,2.6-18.7,3.2c-6.3,0.5-12.6,0.7-19,0.4
						c-6.3-0.4-12.6-1.2-18.7-2.4c-9.8-2.9-19.2-5.9-28-10.1c-8.8-4.2-17-9.7-23.8-17l2.3,2.4c0.2,0.5-1.9-0.9-3.5-2.1
						c2.2,2.5,4.4,4.9,6.6,7.1c-2.4-1.8-4.7-3.8-7-5.6c-2.2-2-4.5-3.9-6.6-6c-3.1-1.5-9.1-7.7-14.4-14.7c-5.3-7-9.7-14.9-12.4-18.3
						c-1-1.9-1.6-3.7-2.3-5.3c-0.3-0.8-0.7-1.6-1-2.3c-0.3-0.7-0.5-1.5-0.8-2.1c-0.5-1.4-0.9-2.6-1.3-3.7c-0.3-1.1-0.6-2.2-0.9-3.1
						c-0.3-0.9-0.5-1.8-0.7-2.6c-0.2-0.8-0.3-1.5-0.5-2.2c-0.3-1.4-0.5-2.6-0.8-3.8c-0.2-1.2-0.4-2.4-0.6-3.8
						c-0.1-0.7-0.2-1.4-0.4-2.2c-0.1-0.8-0.2-1.7-0.3-2.7c-0.1-1-0.3-2-0.4-3.2c-0.1-1.2-0.2-2.5-0.3-3.9c-0.1-0.7-0.1-1.5-0.2-2.3
						c0-0.8-0.1-1.6-0.1-2.5c-0.1-1.7-0.2-3.6-0.2-5.7c-0.7-8.9-0.5-18.7,1.2-28.8c1.7-10.1,5-20.4,9.7-29.9
						c0.9-1.7,1.8-3.4,2.7-4.8c0.9-1.4,1.8-2.7,2.6-3.8c0.7-1,1.4-1.8,1.9-2.2c0.4-0.4,0.7-0.5,0.6-0.2c0.6-1,1.2-2,1.9-3.1
						c0.7-1,1.5-2.1,2.2-3.2c0.4-0.5,0.8-1.1,1.2-1.7c0.4-0.6,0.8-1.1,1.3-1.6c0.9-1.1,1.7-2.2,2.6-3.3c1.9-2.1,3.6-4.3,5.5-6.2
						c0.9-1,1.8-2,2.8-2.8c0.9-0.9,1.8-1.7,2.7-2.6c0.9-0.9,1.7-1.8,2.5-2.5c0.8-0.8,1.5-1.5,2.2-2.1c1.4-1.3,2.6-2.3,3.5-3.3
						c1.9-1.8,3-2.8,3.4-3.3c0.4-0.5,0-0.5-0.9-0.1c-0.5,0.2-1.1,0.5-1.8,0.9c-0.7,0.4-1.5,0.9-2.4,1.5c-0.9,0.6-1.9,1.2-2.9,2
						c-1,0.8-2,1.6-3.1,2.4c-0.5,0.4-1.1,0.9-1.7,1.3c-0.5,0.5-1.1,1-1.6,1.4c-1.1,1-2.3,1.9-3.3,3c-1.1,1-2.1,2.1-3.2,3.1
						c-1,1-2,2.1-2.9,3.1C56.6,70.2,55.2,72.2,53.9,73.7z"/>
					<path class="st4" d="M276.4,219.7c0,0.5,0.4,0.3,1.1-0.4c0.3-0.3,0.7-0.8,1.1-1.3c0.4-0.5,0.8-1.2,1.2-1.8
						c0.9-1.3,1.8-2.8,2.6-4.2c0.8-1.4,1.5-2.7,2-3.5c0,0,0.5-1.2,0.9-2.4c0.4-1.2,0.8-2.5,0.8-2.5c0.5-1.5,1-2.9,1.4-4
						c0.3-1.2,0.6-2.2,0.8-3.1c0.4-1.7,0.5-2.7,0.4-3.1c-0.2-0.8-1.3,0.9-2.9,4.6c0,0.8-0.4,2.1-0.9,3.9c-0.3,0.9-0.6,1.8-1,2.8
						c-0.4,1-0.8,2-1.3,3.1c-0.5,1.1-1,2.2-1.4,3.3c-0.5,1.1-1.1,2.2-1.6,3.2c-0.6,1-1.1,2-1.6,3C277.4,218.1,276.8,219,276.4,219.7
						z"/>
					<path class="st4" d="M198.8,284.5l1.3-1.6c0,0-0.9,0.3-2.3,0.8c-1.4,0.5-3.3,1.1-5.1,1.7c-1.9,0.6-3.8,1.2-5.2,1.5
						c-1.4,0.4-2.4,0.6-2.4,0.6c0.3,0.3,2.3,0,5-0.5C192.6,286.3,195.9,285.4,198.8,284.5z"/>
					<path class="st4" d="M213.6,31.7c6.3,3.2,10.2,6.2,14.3,9.1c3.9,3.1,8,6.1,13.7,10.9l-0.8-3.4c-5.3-5.1-11.1-10-17.7-14.4
						c-6.6-4.4-14-8.4-22.4-11.5c-3-0.5-3.3-0.2-2.1,0.5c1.2,0.6,3.8,1.8,6.5,3.1c1.4,0.6,2.8,1.4,4,2c1.3,0.7,2.5,1.3,3.3,1.9
						C214.3,31.2,215.1,31.9,213.6,31.7z"/>
					<path class="st4" d="M236.8,51.3c-5.1-3.6-10.5-7.3-16.1-10.7c-5.7-3.3-11.6-6.4-17.6-9c-6-2.6-12.1-4.5-18.1-5.8
						c-1.5-0.3-3-0.6-4.4-0.8c-1.5-0.2-2.9-0.4-4.3-0.5c-2.8-0.4-5.6-0.3-8.2-0.3c2.6,2.7,12.7,3.8,23.8,6.9
						c5.5,1.5,11.3,3.4,16.5,5.7c5.1,2.3,9.7,4.8,12.8,7.2c1.1,0.6,2.2,1.2,3.2,1.8c1,0.6,2,1.2,2.9,1.8c0.9,0.6,1.9,1.2,2.8,1.8
						c0.9,0.6,1.8,1.3,2.7,1.9c3.7,2.5,7.5,5.6,12.3,10c3.7,3.1,2.9,1.8,0.6-1c-1.1-1.4-2.8-3-4.4-4.7
						C239.6,53.9,238,52.4,236.8,51.3z"/>
					<path class="st4" d="M161.6,21.4c-2.7-0.2-5.9,0-7.4,0.1c-2,0.4,3.1,0.8,5.4,1.2c1.4,0,3.8,0,4.9-0.2
						C165.7,22.3,165.5,21.9,161.6,21.4z"/>
				</g>
			</g>
		</g>
	</g>
</g>
<text transform="matrix(1 0 0 1 73.2284 144.4985)"><tspan x="0" y="0" class="st2 st5 st6">Variety of</tspan><tspan x="19.4" y="36" class="st2 st5 st6">Flavors</tspan></text>
</svg>
