<svg id="Layer_1" data-name="Layer 1" xmlns="http://www.w3.org/2000/svg" viewBox="0 0 297.18 290"><defs><style>.cls-1{fill:#6fa543;}.cls-2{font-size:32.84px;}.cls-2,.cls-3{fill:#fff;font-family:Proxima Nova;}.cls-3{font-size:34.82px;}</style></defs><title>logo_green</title><circle class="cls-1" cx="147.79" cy="150.24" r="131.57"/><path class="cls-1" d="M227.62,259.09c2.36-1,3.66-1.65,5.86-2.47l1.37-.85,1.43-1,3.12-2.24c1.1-.76,2.13-1.67,3.21-2.52s2.17-1.71,3.2-2.59c2-1.79,4-3.41,5.61-4.84a26.76,26.76,0,0,1,3.83-3c0.07,0.24-1.62,3-3.65,5.88-1,1.4-2.16,2.83-3.12,4a16.65,16.65,0,0,1-2.26,2.37l-3.14,2.69c-1,.84-2.08,1.6-3.08,2.35s-2,1.47-2.95,2.14l-2.91,1.88c-1,.6-1.88,1.2-2.82,1.75l-2.82,1.56-2.77,1.5-2.83,1.36-2.84,1.35c-1,.45-2,0.84-2.94,1.27-2,.85-4,1.75-6.23,2.56l-3.35,1.32c-1.15.44-2.37,0.84-3.6,1.29s-2.49.95-3.84,1.36l-4.15,1.36c-2,.57-8.71,4.06-15.65,6.39,0,0,2.13-.22,4.63-0.72a64.81,64.81,0,0,1-8.14,2.41c-1.49.41-3.07,0.62-4.67,0.94s-3.24.61-4.91,0.79c-6.66,1-13.66,1.21-19.84,1.54,2.64,0.32,2.64.29,4.22,0.58-5-.64-12.7-1.16-21-2.24a151.15,151.15,0,0,1-24.54-5.2c-2.81-1.18-4.78-2-6.69-3l-4.89-1.82c-1.6-.67-3.18-1.39-4.77-2.09s-3.14-1.51-4.71-2.3-3.16-1.59-4.7-2.51-3.16-1.75-4.72-2.73l-4.79-3-4.87-3.25c-1.66-1.11-3.28-2.34-5-3.53a113.11,113.11,0,0,1-17.78-17.1,162,162,0,0,1-16.1-23,127.68,127.68,0,0,1-9.65-22.51A145.48,145.48,0,0,1,11.88,171a174,174,0,0,1-1.51-24.15A216,216,0,0,1,11.64,124c0.06-.61.12-1.29,0.24-2s0.28-1.5.45-2.32c0.36-1.64.7-3.48,1.3-5.36s1.2-3.87,2-5.83,1.65-3.89,2.54-5.75c0.51-2.24,1.12-4.73,2-7.34a85.22,85.22,0,0,1,3.2-8.19,104,104,0,0,1,9.89-17.42c1-1.43,2-2.92,3.11-4.3l3.32-4.2c2.35-2.7,4.68-5.41,7.2-7.9A132.32,132.32,0,0,1,62.06,40c0.92-.7,1.79-1.39,2.68-2s1.75-1.13,2.58-1.64,1.63-1,2.39-1.42,1.54-.78,2.26-1.13c1.44-.68,2.75-1.25,3.91-1.72s2.24-.76,3.14-1a128.91,128.91,0,0,1,16.06-8.83l4.29-1.89c1.43-.63,2.92-1.14,4.39-1.72,2.93-1.18,6-2.05,9-3a127.51,127.51,0,0,1,38-5.08A134.42,134.42,0,0,1,199,20,130.15,130.15,0,0,1,242.4,48.14c0.88,0.87,2,1.92,3.2,3s2.47,2.43,3.77,3.68c0.64,0.63,1.31,1.24,1.92,1.88l1.79,1.86c1.15,1.2,2.25,2.25,3.09,3.15,1.16,1.88,2.33,3.7,3.44,5.58a157,157,0,0,1,15.8,25.76,108.68,108.68,0,0,1,9,26.77l0.43,2.25,0.28,2.14q0.27,2.08.46,3.92c0.22,2.47.24,4.64,0.26,6.55a24.08,24.08,0,0,1-.09,2.67c-0.06.83-.14,1.6-0.22,2.31a31.2,31.2,0,0,1-.62,3.67,13.23,13.23,0,0,1-3.94,6.86,116,116,0,0,0-3.19-18.94,158.44,158.44,0,0,0-6.3-19,207.08,207.08,0,0,0-9.45-20,214.22,214.22,0,0,0-13.49-21.78,65.24,65.24,0,0,0-5.32-6.73,98,98,0,0,0-7-6.89,130.66,130.66,0,0,0-16.33-12.26c-4.73-2.79-9.48-6-14.43-8.48a67.79,67.79,0,0,0-7.39-3.37c-1.22-.48-2.47-0.83-3.68-1.18a29.76,29.76,0,0,0-3.6-.83c-6-3.36-17.11-7.52-30.16-9.39a114.56,114.56,0,0,0-20.24-.9,104.4,104.4,0,0,0-19.3,2.82c-2,.22.16-0.5-3.34,0A146.44,146.44,0,0,0,69.91,47.55C55.2,59,42.24,73.88,33.69,91.34A141.22,141.22,0,0,0,23,120.95a116.37,116.37,0,0,0-2.73,16.92c-0.17,2.91-.42,5.85-0.36,8.81,0,1.48,0,3,.06,4.45l0.28,4.47c0,0.28.06,0.68,0.07,1.19l0.11,1.79,0.2,4.88,0.54,5.66c0.23,1.89.59,3.71,0.91,5.3l0.46,1.63L23,177.68l1.07,3.2a123.36,123.36,0,0,0,8.8,24.39,214.58,214.58,0,0,0,11,19.6A104.13,104.13,0,0,0,56.8,241a182.51,182.51,0,0,0,14.36,12.88,115,115,0,0,0,29.36,16.66c11.19,4.58,22.67,7.09,30.57,9.05a35,35,0,0,0,5.59.72l3.78,0.26c1.26,0.08,2.49.06,3.57,0.11,2,0.29,4,.61,6.09.76,4.36,0,7.14-1.4,11.42-1.73A129.82,129.82,0,0,0,183,275.89a137.77,137.77,0,0,0,20.52-7.22c6.36-2.83,12.16-5.84,17.08-8.63,1.26-.65,2.39-1.4,3.53-2l3.23-1.83c2-1.21,3.81-2.21,5.4-3-0.86.81-3,2.7-4.52,4.19S225.74,259.85,227.62,259.09Z"/><path class="cls-1" d="M288.16,159.19c0.18,0.62.38-.21,0.56-1.56s0.18-3.22.18-4.66c-0.54,2.52-1,4-1.9,9.28l0.38-4.12c0.11-1,.11-2.07.16-2.84l0.06-1.29c-0.48-2.2-.61-0.16-0.66,1.8s-0.15,3.86-.17,1.41c0.24-4.54.53-8.12,1-5.93-0.29.76-.17,2.72-0.35,5.44,0.71,0.49,1.13-4,1.66-6.49l-0.2,6.54c-0.06,1.64-.24,3.27-0.33,4.49l-0.17,2Z"/><path class="cls-1" d="M282.12,187.53l0.42-1.29c0.21-.65.41-1.29,0.41-1.29-0.09-.64-0.32-0.34-0.7.41s-0.87,2-1.36,3.15c1-2.72,1.52-4.07,1.81-4.68s0.45-.42.56-0.11c0.21,0.63.29,1.86,1.46-1.46-0.15-.16-0.73,1.5-1.29,3S282.17,188.18,282.12,187.53Z"/><path class="cls-1" d="M283.4,172.4a34.49,34.49,0,0,0,1.5-6.83c0.33-2,.44-3.55,1.06-4.08l-0.33,2c-0.17,1.22-.57,2.83-0.89,4.43s-0.65,3.21-1,4.4l-0.52,2Z"/><path class="cls-1" d="M244.87,248a27.17,27.17,0,0,1-2.19,2.36l-1.23,1.09c-0.57.52-1.38,1.21-2.61,2.21,0,0,1.76-1.46,3.4-3.06l2.29-2.16,0.75-.71,0.27-.28-0.34.28Z"/><path class="cls-1" d="M76.29,266.83c2,1.57,3.89,3,6.12,4.53A68.23,68.23,0,0,0,91,276.18c-0.95-.42-1.87-0.86-2.77-1.3s-1.74-1-2.56-1.43c-1.62-1-3.15-1.86-4.41-2.8C78.76,268.8,76.95,267.39,76.29,266.83Z"/><path class="cls-1" d="M26.74,206c0.41,0-.55-2.36,1.08.87,0.52,1.58-1.32-.08,1.7,4.69l-1.44-2.76c-0.37-.68-0.69-1.39-0.93-1.92Z"/><path class="cls-1" d="M25.9,199.32l-0.66-3.47A11.47,11.47,0,0,0,25.9,199.32Z"/><path class="cls-1" d="M206.46,277.7l-0.59,0-1.12.66Z"/><path class="cls-1" d="M194.52,281.9l1.34-.33,2.91-.86,2.92-.87c0.8-.23,1.32-0.42,1.32-0.42,0.62-.39,1.15-0.68,1.73-1a23.57,23.57,0,0,1-4.77,1.51,17.21,17.21,0,0,0-1.93.59C197.22,280.8,196.15,281.3,194.52,281.9Z"/><path class="cls-1" d="M204.85,277.82l1-.07c6.61-3.82,10.27-4,19.31-10.21l-5.29,2.86c-1.79.9-3.55,1.82-5.26,2.74l-5.08,2.49C207.95,276.47,206.32,277.11,204.85,277.82Z"/><path class="cls-1" d="M212.46,273.27l1.25-.89c0.62-.45,1.22-0.94,1.22-0.94,2.39-1.25,2.38-.82,2.36-0.61l2.41-1.47c1.19-.77,2.35-1.57,2.35-1.57,0.77-.92-2.5,1-6.61,3.09s-9,4.46-11.15,5.29l1.29-.42c0.77-.26,1.82-0.56,2.82-0.95Z"/><path class="cls-1" d="M249.34,235.74l-0.14.18,0.16-.19h0Z"/><path class="cls-1" d="M237.31,245.76l0.32,1.44c1.25-1.24,2.28-2.18,3.22-3s1.71-1.54,2.54-2.26,1.65-1.47,2.61-2.4,1.94-2.13,3.19-3.64l0.14-.18C246.58,237,242.12,242.85,237.31,245.76Z"/><path class="cls-1" d="M184.32,283.69c1.77-.5,3.43-0.93,4.94-1.4s2.87-1,4.08-1.43a19,19,0,0,0,5.09-2.54l-2,.72c-1.18.46-2.8,0.94-4.42,1.44s-3.21,1-4.45,1.32l-2,.52C190.63,281.47,185.37,282.93,184.32,283.69Z"/><path class="cls-1" d="M172.82,283.83l1-.18c0.58-.11,1.37-0.24,2.14-0.44l3.09-.74-2.81.22a3.25,3.25,0,0,1-1,.48C174.68,283.37,173.88,283.58,172.82,283.83Z"/><path class="cls-1" d="M176.21,282.69c0.22-.27-0.69-0.17-3,0.15l1.52,0C175.46,282.77,176.21,282.69,176.21,282.69Z"/><path class="cls-1" d="M188.14,278.55a12.49,12.49,0,0,0-4.1.91c-0.61.23-1.3,0.51-2.27,0.84a37.79,37.79,0,0,1-4,.95c-0.17.5,1.58,0.12,3.79-.51S186.44,279.06,188.14,278.55Z"/><polygon class="cls-1" points="159.49 283.73 157.18 283.25 156.69 284.19 159.49 283.73"/><path class="cls-1" d="M106.71,281.89c3.43,0.58,2.51.09,0.69-.6a33.36,33.36,0,0,1-4.71-2.13Z"/><path class="cls-1" d="M151.77,282.11l2.17,0.78,0.56-.24,0.55-.26a32.16,32.16,0,0,1,6-.14c0.68-.55-0.79-0.56-2.85-0.43l-3.35.26C153.72,282.14,152.62,282.14,151.77,282.11Z"/><path class="cls-1" d="M124.82,282.32l-3.27-.88c-0.82-.2-1.62-0.5-2.23-0.68l-1-.33"/><path class="cls-1" d="M167.09,277.78c0.07-.19-2.31-0.27-3.34-0.43s-0.72-.35,4.67-1c-1,.18-2.19.29-3.27,0.4s-2.1.22-2.87,0.27c-1.54.11-2.09,0-.24-0.58-1.67.23-2.54,0.28-3,.42s-0.41.25-.32,0.39,0.65,0.58-1.59,1C160.83,277.5,163.76,278,167.09,277.78Z"/><path class="cls-1" d="M150.47,278.32l-2.57-.09-2.59-.19a21.82,21.82,0,0,0-4.12,0C144.57,278.15,147.56,279.08,150.47,278.32Z"/><path class="cls-1" d="M147.44,276.27s0.29,0.07.72,0.12l1.59,0.22,2.32,0.32-2.86-.86-0.89.11C147.88,276.24,147.44,276.27,147.44,276.27Z"/><line class="cls-1" x1="81.84" y1="264.74" x2="81.4" y2="265.85"/><path class="cls-1" d="M128.26,274.73s0.18,0,.5.08l1.33,0.16,4,0.48c1.46,0.18,2.94.22,4,.31l1.84,0.12-5.25-.67-5.2-.93c-3.21-.22-4.06-0.22-3.56.08a22.44,22.44,0,0,0,4.64,1.23A5.41,5.41,0,0,1,128.26,274.73Z"/><path class="cls-1" d="M140.63,277.57h0.56l1.24-.09,1.8-.13a14.44,14.44,0,0,0-3.13-.29c-1.89-.2-4.37-0.41-6.65-0.72C137.49,276.81,140.25,277.22,140.63,277.57Z"/><path class="cls-1" d="M134.45,276.33l-3.84-.75C131.7,275.83,133,276.08,134.45,276.33Z"/><path class="cls-1" d="M57.27,247.2l1.27,1.25,2.92,2.6c1.06,1,2.12,1.9,3,2.55l1.38,1.12c-0.79-.71-1.55-1.39-2.3-2l-2.12-1.93C60,249.53,58.61,248.42,57.27,247.2Z"/><path class="cls-1" d="M120,272l-1.61-.38-0.7.77C121.1,273,119.9,272.2,120,272Z"/><path class="cls-1" d="M107.19,266.57c-2.62-1.44-8.43-3.19-10.72-4.21a29.78,29.78,0,0,0,5.24,2.88l3,1.31c1,0.44,2.14.81,3.26,1.26C103.47,266.06,106.88,266.85,107.19,266.57Z"/><path class="cls-1" d="M94.7,260.13l1.37,0.64,3,1.39c1.09,0.53,2.22,1,3.07,1.3l1.41,0.57a8.26,8.26,0,0,0-3.56-1.89C98.46,261.54,96.57,261,94.7,260.13Z"/><path class="cls-1" d="M81,252.72c-0.78-.4-0.37.2-1.93-0.6a15.74,15.74,0,0,0,2.58,2c1.11,0.72,2.3,1.53,3.33,2.14,0,0-1-.82-2-1.73Z"/><path class="cls-1" d="M161.6,281.1c-1.58.17-3.07,0.27-4.51,0.4s-2.82.26-4.18,0.29a122,122,0,0,0,12.85-.5C164.38,281.2,163.06,281.09,161.6,281.1Z"/><path class="cls-1" d="M276.3,91.46a222.73,222.73,0,0,0-15.16-23A145.84,145.84,0,0,0,242.4,48.14a113.78,113.78,0,0,0-14.84-11.74,124.48,124.48,0,0,0-17.75-9.92c-0.79-.36-1.56-0.75-2.37-1.09l-2.42-1c-1.62-.65-3.21-1.38-4.88-1.93l-5-1.77-5-1.54a157.07,157.07,0,0,0-20.48-4.42l0.28-.32a124.26,124.26,0,0,0-35.81-1.09,143.51,143.51,0,0,0-36.25,9.16l1.39,0c1.85-.74,4.07-1.37,5.43-1.76s1.92-.38.57,0.43l-4,1.19-4,1.35c-2.52.81-4.55,1.61-5.35,1.76L90.2,26.59l-1.17.8c-0.32.21-.52,0.37-0.52,0.37C86.92,28.35,86.57,28,85.6,28S83,28.51,79,31.12a13,13,0,0,1-2,1.64c-0.79.56-1.65,1.19-2.6,1.78s-2,1.21-3,1.81-2,1.28-3,1.89L65.66,40c-0.84.59-1.58,1.17-2.2,1.68-1.23,1-1.92,1.84-1.67,2.3a11.47,11.47,0,0,0-3.13,1.9A44.08,44.08,0,0,0,55.14,49c-2.3,2.34-4.59,4.83-6.17,6.53l1.43-.81,1-.55c0.26-.15.45-0.24,0.45-0.24-1.77,1.64-3.54,3.23-5.25,4.76l-4.73,4.54c-1.42,1.48-2.72,2.87-3.84,4.12a29.75,29.75,0,0,0-2.61,3.45C33.65,73.24,32,76.07,30.14,79l-2.57,4.6Q26.91,84.73,26.32,86l-1.2,2.43a118.42,118.42,0,0,0-7.62,19.73c-1,1.23.09-2,1-4.62s1.74-4.5-.36-0.77c-1.63,6.1-3.4,12.72-4.87,19.81a173.42,173.42,0,0,0-3,22.43c-1,15.51.84,32,5.78,46.19-0.14-.84-0.77-3.45-0.07-1.63,0.89,5.87,4.24,13.07,8.13,22a53.07,53.07,0,0,0-2.8-7.69l-2-5.5c-0.65-1.73-1.08-3.31-1.44-4.37,1.33,1.1,1.39,1.71,1.73,3.46a37.64,37.64,0,0,0,1,3.65c0.27,0.81.58,1.76,1,2.83s1,2.26,1.73,3.62c-0.26-.82-0.79-2.46-0.58-2.42,2.61,5.43,3,6.54,3.13,7.44a5.91,5.91,0,0,0,.38,1.58c0.15,0.38.36,0.87,0.67,1.51s0.81,1.41,1.42,2.4l-1-2.36-0.92-2.41a40.46,40.46,0,0,0,2.13,3.89,14.06,14.06,0,0,0,1,1.4c0.56,0.68,1.12,1.54,4.07,5.7-0.82-.37-0.73.59-0.25,2a22,22,0,0,0,2.17,4.17c1,0.81,6.82,8.72,6.76,7.14a45,45,0,0,0,9,10.81c1.46,1.27,2.86,2.56,4.41,4,0.79,0.73,1.61,1.52,2.46,2.41s1.73,1.92,2.75,3c2.25,1.27,1.42.32,0.15-1s-2.88-3.05-2.48-3.17c2.36,1.91,3.77,3,4.51,3.64s0.84,1,.73,1.09-1.29.05,0.35,1.53l4,2.65,2.89,1.93,3.27,2c2.2,1.46,4.61,2.76,6.74,4.09S85.22,273,86.65,274l0.72-.44c1.11,0.71,2.39,1.32,3.69,2s2.68,1.44,4.13,2.06l4.38,2c1.46,0.65,3,1.17,4.39,1.74,5.73,2.24,10.87,3.77,12.71,4.7,4.49-.11-3.69-1.72-10.65-4-0.63-.5.87-0.2,3,0.23s4.74,1.22,6.44,1.67a15.78,15.78,0,0,1-2-.68,7.69,7.69,0,0,0-2.27-.56c-0.16-.38,1-0.11,2.42.29s3.18,0.79,4.14.93c3,0.81,4.3,1,4.5,1.12a5,5,0,0,1-1.69-.12c-2.11-.32-5.12-0.9-2.61-0.11l2,0.39,2.42,0.38c1.68,0.26,3.42.56,4.87,0.73,2.92,0.27,4.65.29,2.28-.49,5,0.66,5.94.9,6.29,1.25s0.09,0.68,2.7,1.08c-1.94-.32-3.57-0.47-5-0.58s-2.7-.23-3.91-0.3A31,31,0,0,1,126,287a26.24,26.24,0,0,1-3.86-1c-2.09,0-1.41.39,1.08,1.12,1,0.16,2.21.36,3.44,0.57l3.89,0.52c2.67,0.42,5.46.65,8,.87a57.05,57.05,0,0,0,6.38.23c1.6,0,2.55-.14,2.48-0.39,0,0,.26.06,0.66,0.11l1.45,0.19,2.11,0.28,2.06-.4c0.51-.1,1-0.2,1.41-0.29l0.64-.16,1.74,0.06c-2-.31-5-0.64-7.87-0.94-1.43-.12-2.83-0.34-4.06-0.57a24.15,24.15,0,0,1-3-.71c-0.3-.24.87-0.27,2.47-0.24l2.57,0.07c0.88,0,1.73,0,2.42-.06l2.21,0.78a17.76,17.76,0,0,0,6.59-1,24.36,24.36,0,0,1,3.05-.71,47,47,0,0,1,5.43-.76c-1.47.45-1.53,0.69-.67,0.8a16.27,16.27,0,0,0,1.9.06c0.82,0,1.8-.12,2.88-0.22l3.48-.35c1.22-.12,2.46-0.36,3.68-0.54l3.52-.54,2.95-.53c3.39-1.93,3-2.21,2.61-2.43-0.22-.11-0.47-0.2-0.31-0.47a8.78,8.78,0,0,1,2.12-1.6c1.69-.58,3.63-1.2,5.66-2s4.18-1.66,6.33-2.65c4.32-1.94,8.74-4.08,12.63-6-2.22,1.32-3.84,2.06-4.86,2.65a8.68,8.68,0,0,0-1.61,1c-0.2.25,1.11-.21,2.55-0.71a17.64,17.64,0,0,1,3.3-1c0.3,0.09-.65.85-4.33,2.89,1.61-.72,3-1.45,4.46-2.24s2.77-1.7,4.35-2.59c3.14-.11-4,3.64.72,2.21l0.83-1.62c2.33-1,4.29-1.72,6.73-2.82a56.11,56.11,0,0,0,9.34-5.75,52.57,52.57,0,0,1,7.64-7.58,6.31,6.31,0,0,0,2.54-1.33,57.63,57.63,0,0,0,6.29-6c2.63-3.71,3-4.82,2.19-4.37s-2.92,2.49-5.65,4.8-5.91,5.06-8.73,7.19-5.27,3.64-6.25,3.8q-1.88,1.42-3.58,2.63c-1.14.8-2.27,1.47-3.33,2.12s-2.06,1.26-3.05,1.78-2,1-2.88,1.42-1.82.85-2.69,1.23-1.76.68-2.62,1c-1.72.61-3.35,1.25-5.1,1.73l-5.39,1.61c-1.93.5-4,1.11-6.22,1.76-1.14.3-2.34,0.62-3.6,1l-1.94.56L191,274l-4.52,1.2c-1.61.37-3.32,0.77-5.12,1.22-2.19.92-2.92,1.22-4.14,1.69-0.61.22-1.36,0.47-2.49,0.8s-2.67.63-4.86,1.11c-2.93,1.32.37,1.11,5.17,0.48l3.76-.67c1.3-.23,2.61-0.46,3.84-0.76,2.47-.57,4.74-0.94,6.14-1.19a40.09,40.09,0,0,1-3.95,1.51,22.36,22.36,0,0,1-3.85,1l0.49,0.06,1.06,0.1,1.55,0.14-2.4.74c-0.74.18-1.41,0.34-2,.47-1.22.27-2.2,0.45-3,.57a14.11,14.11,0,0,1-3.49.15,19.23,19.23,0,0,0-3.15,0c-1.39.16-3.36,0.35-6.52,0.86l2.77-.61-3.61.62c-0.9.17-1.81,0.28-2.5,0.36l-1.14.14L160.7,284c-2.25.2-3.7,0.53-5.46,0.83a40.76,40.76,0,0,1-7.31.27l5.76-.84c-3.87.59-4.9-.53-10.43-0.39,3.09-.36,4-0.79,5.89-0.88a196.7,196.7,0,0,1-22.19-2.4c-3-.47-5.92-0.88-8.81-1.58-1.45-.34-2.92-0.59-4.34-1l-4.28-1.19a115,115,0,0,1-16.42-6.32,120.36,120.36,0,0,1-28.73-19.08c0.66,0.73,1.5,1.57,1.92,2-0.84-.58-1.59-1.13-2.25-1.68s-1.2-1.12-1.71-1.65a36,36,0,0,1-2.55-3l-4.4-4.61-4.14-4.82c-1.53-1.73-3-3.33-4.43-5s-2.76-3.32-4.07-5.09a106.12,106.12,0,0,1-8.05-12.37c0.22-.71.75-0.16,1.47,1-2.09-3.45-3.5-5.5-2-1.77-0.45-.75-0.87-1.45-1.24-2.13l-1-1.94c-0.59-1.23-1.09-2.33-1.56-3.39-0.85-2.15-1.57-4.1-2.59-6.47L28,200.94l0.65,1.17,2,3.55c0.7,1.29,1.53,2.52,2.09,3.47l1,1.56a19.45,19.45,0,0,0-2.48-4.42,28,28,0,0,1-2.78-5.71c-2.06-4.82-1.86-3.67-1.29-1.41L27.6,201c0.19,0.62.37,1.22,0.51,1.75,0.28,1.05.39,1.77,0.07,1.55l-0.83-2c-0.43-1-.78-2-0.78-2s0.14,1.17.38,2.32l0.43,2.32a60,60,0,0,1-4.52-17.57s0.33,1.65.8,3.26l0.88,3.24c1,1,.14-1.69-1-5-0.48-1.67-1-3.5-1.46-5.1a15.8,15.8,0,0,1-.64-3.79l0.29,0.86c-2.25-10.07-.14,2.32-1.84-4.49l-0.55-6.18L19.08,164l-0.56,2.18c-0.17-.89-0.35-1.88-0.47-3s-0.18-2.28-.24-3.53c-0.2-2.51-.09-5.32,0-8.26a158.71,158.71,0,0,1,1.92-18.19c1.07-6.65,2.23-15.61,4.9-23.92-0.34.74-.87,1.87-1.21,2.72s-0.62,1.37-.61.84c0.33-1.26.9-2.84,1.46-4.47s1.14-3.31,1.77-4.66c1.19-2.73,2.06-4.33,1.74-2.31,0,0,.48-1.77,1.11-3.5L30,94.49A43.19,43.19,0,0,1,33.19,89l-1.24,1.6,0.59-1.25L33.14,88l0.76-1.44L36,82.67A6.23,6.23,0,0,0,36.8,82c0.26-.13.14,0.12-0.9,2L38.1,81c0.74-1.07,1.47-2.2,2.21-3.36,1.61-2.25,3.11-4.78,5-7.27s3.82-5.13,6-7.8q1.74-1.93,3.63-3.92c1.26-1.32,2.67-2.55,4.08-3.84l-3,3.46c1.52-1.68,2.76-2.91,3.88-3.93s2.18-1.72,3.21-2.5c2.06-1.55,4.28-3,8-6.22L70,46,69,46.38c1.34-1.17,3.16-2.38,5-3.66s3.85-2.35,5.57-3.34c3.53-1.86,6.16-2.92,5.4-2.19,0-2,3.76-1.48,7-4.67l4.54-.42c1-.58,2-1.08,2.9-1.53s1.69-.87,2.26-1.21c1.14-.67,1.4-1-0.15-0.83,7-1.9,12.55-3.35,16.32-5.19a0.58,0.58,0,0,1,.17-0.08l0.14-.07v0c0.76-.22,2.86-0.74,4.4-1s2.49-.58.89-0.64c2-.35,3.7-0.67,5.09-0.81s2.51-.22,3.43-0.27a22.11,22.11,0,0,1,4,0c2.1,0.22,4.07.23,11.85,0.07l0.64-1.08c12,0.35,23.88,1.19,33,2.95l0.92,1.21c3,0.74,2.81.44,3,.26s0.84-.33,5.5,1.18c1.25,0.59,2.3,1.25,2,1.41,1.12,0.39,2.26.87,3.45,1.34s2.43,0.94,3.66,1.54c2.47,1.17,5.11,2.36,7.77,3.87s5.41,3.11,8.26,4.81l4.23,2.81c1.46,0.92,2.82,2,4.28,3a12.54,12.54,0,0,1-2.6-1.31L226,45.52l4.81,3.54,4.83,3.85c1.55,1.31,3,2.62,4.36,3.79,1.34,1.56,2.66,3.3,4.09,5s2.76,3.69,4.24,5.6,2.84,4,4.21,6.15,2.81,4.3,4.1,6.61c2.75,4.5,5.16,9.37,7.53,14.28l1.64,3.75,0.83,1.87,0.74,1.9,1.5,3.79,1.34,3.82c7.3,15,10.53,26.13,13.41,27.46,0.59-2.29.9-7.95,0.06-16A116.55,116.55,0,0,0,276.3,91.46Z"/><text class="cls-2" transform="translate(34.05 181.58)">SMO<tspan x="70.94" y="0">O</tspan><tspan x="95.18" y="0">THIE C</tspan><tspan x="194.49" y="0">O</tspan><tspan x="218.73" y="0">.</tspan></text><text class="cls-3" transform="translate(34.05 147.66)">THE OR<tspan x="121.23" y="0">G</tspan><tspan x="145.95" y="0">ANIC</tspan></text></svg>